<?xml version="1.0" encoding="utf-8"?>
<!-- Generator: Adobe Illustrator 27.7.0, SVG Export Plug-In . SVG Version: 6.00 Build 0)  -->
<svg version="1.1" id="Layer_1" xmlns="http://www.w3.org/2000/svg" xmlns:xlink="http://www.w3.org/1999/xlink" x="0px" y="0px"
	 viewBox="0 0 375 132.29" style="enable-background:new 0 0 375 132.29;" xml:space="preserve">
<style type="text/css">
	.st0{fill:#564D45;}
	.st1{fill:#D7C2AE;}
	.st2{fill:#FFFFFF;}
	.st3{fill:#A58B72;}
	.st4{fill:#707070;}
</style>
<path class="st0" d="M313.85,111.64c0.33,0.1,0.48,0.04,0.44-0.18c-0.04-0.23-0.19-0.35-0.42-0.36c-0.67-0.01-0.77,0.13-0.3,0.42
	C313.65,111.57,313.75,111.61,313.85,111.64z M345.42,97.99c-0.94-0.06-1.84,0.04-2.71,0.29c-0.08,0.02-0.13,0.11-0.13,0.19
	c0.01,0.09,0.09,0.15,0.17,0.15c2.38-0.01,4.78-0.01,7.21,0.01c0.21,0,0.38-0.16,0.39-0.37c0.01-0.21-0.14-0.38-0.35-0.41
	c-1.27-0.13-2.54-0.09-3.84,0.11C345.9,97.99,345.66,98.01,345.42,97.99 M324.6,97.93c1.24-0.07,2.96,0.23,4.37-0.24
	c0.1-0.03,0.16-0.14,0.14-0.23c-0.02-0.1-0.11-0.17-0.22-0.16c-2.57,0.22-5.03,0.2-7.39-0.05c-2.01-0.21-3.49,0.14-3.48,2.45
	c0.02,3.56,0.03,7.12,0.04,10.67c0,0.07,0.03,0.15,0.09,0.2c0.05,0.04,0.09,0.09,0.13,0.14c0.12,0.13,0.33,0.04,0.33-0.13l0.06-11.7
	c0.01-0.5,0.42-0.91,0.92-0.89C321.36,98.03,323.02,98.02,324.6,97.93 M334.64,96.09c0.63,1.52-1.4,1.05-2.2,1.39
	c-0.22,0.1-0.22,0.16,0.01,0.21c1.82,0.36,3.63-0.22,5.04-0.27c1.78-0.05,3.38-0.11,4.8-0.17l6.97-0.22
	c0.23-0.01,0.45-0.13,0.58-0.32c0.6-0.93,0.72-3.49-1.08-3.17c-1.11-0.87-2.76-0.58-3.77-0.71c-1.94-0.25-3.83-0.2-5.65,0.17
	l-18.09-0.65l-1.45,0.02c-0.16-0.16-0.36-0.23-0.61-0.2c-0.25,0.02-0.45,0.15-0.58,0.37c-0.53,0.91-0.67,1.88-0.39,2.91
	c0.15,0.56,0.68,0.93,1.24,0.88C324.5,95.88,328.59,96.95,334.64,96.09 M358.07,73.19c-0.19,1.94-0.22,3.95-0.07,6.03
	c0.23,3.04-0.4,6.14,0.25,9.36c0.04,0.22,0.16,0.28,0.37,0.19l0.76-0.32c0.19-0.07,0.27-0.3,0.16-0.48
	c-0.4-0.68-0.55-1.34-0.43-1.99c0.38-2.25-0.37-4.19-0.38-6.01c-0.02-2.64-0.07-4.9-0.17-6.78
	C358.45,70.99,358.29,70.99,358.07,73.19 M360.25,67.62c-0.01-5.92,1.27-11.7,1.35-17.66c0.01-0.31-0.13-0.4-0.41-0.28
	c-0.75,0.32-0.36,3.7-0.52,4.48c-0.05,0.25-0.4,0.24-0.44-0.01l-0.32-1.99c-0.01-0.08-0.1-0.14-0.17-0.11
	c-0.07,0.02-0.15,0.05-0.22,0.07c-0.12,0.05-0.18,0.14-0.17,0.27c0.01,1.16,0.09,2.31,0.23,3.45c0.32,2.59-0.5,4.8,0.43,7.52
	c0.08,0.24,0.01,0.4-0.23,0.48l-0.25,0.08c-0.11,0.04-0.18,0.12-0.19,0.24c-0.23,2.83,0.43,5.57,0.3,8.21
	c-0.28,5.72-0.09,11.43,0.55,17.12c0.49,4.32,0.62,7.8,0.56,11.82c-0.01,0.28,0.14,0.4,0.41,0.38l4.39-0.43
	c0.23-0.02,0.37-0.15,0.4-0.38c0.25-1.76,0.3-3.52,0.17-5.28c-0.23-0.23-0.17-0.38,0.18-0.46c0.28-0.07,0.42,0.04,0.41,0.34
	l-0.13,5.21c-0.01,0.21,0.07,0.25,0.23,0.11c0.58-0.49,0.83-1.1,0.76-1.86c-0.63-7.41-1.71-17.97-3.23-31.68
	c-0.02-0.16-0.14-0.22-0.34-0.19c-0.18,0.02-0.31,0.19-0.3,0.37c0.46,6.25,1.26,12.33,1.5,18.61c0.01,0.22-0.07,0.44-0.22,0.61
	c-0.98,1.07-0.8,6.98-1.52,9.11c-0.02,0.06-0.09,0.1-0.15,0.08c-0.07-0.01-0.11-0.07-0.1-0.13c0.32-2.29,0.59-4.57,0.83-6.86
	c0.16-1.52,0.93-3.93,0.61-6.1c-0.38-2.66-0.67-5.32-0.89-8c-0.19-2.38-1.16-5.69-0.42-8.91c0.58-2.54,0.45-4.35,0.44-6.74
	c0-0.13-0.07-0.19-0.2-0.19l-0.23-0.01c-0.14,0-0.23,0.08-0.24,0.22c-0.22,2.58-0.44,5.16-0.67,7.75c-0.26,2.97,0.58,5.9,0.55,9.01
	c-0.07,5.28,1.31,8.71-0.77,14.01c-0.05,0.13-0.1,0.13-0.15,0c-0.2-0.59-0.41-1.18-0.62-1.76c-0.72-2.06-0.32-5.39-0.5-7.7
	c-0.01-0.06,0.04-0.1,0.09-0.11c0.06-0.01,0.11,0.04,0.12,0.09c0.34,2.07,0.48,3.87,0.42,5.41c-0.14,3.53,0.37,3.62,1.52,0.29
	c0.25-0.71,0.25-1.95,0.02-3.71c-1.07-7.9-1.87-16.3-0.63-24.17c0.38-2.41,0.5-4.38,0.39-5.9c-0.01-0.04-0.04-0.07-0.07-0.07
	c-0.07,0-0.14,0-0.2,0.01c-0.11,0.01-0.18,0.07-0.2,0.19c-0.52,5.08-1.15,10.15-1.9,15.21c-0.01,0.07-0.07,0.12-0.14,0.11
	C360.3,67.75,360.25,67.69,360.25,67.62 M361.92,45.11c-0.5,1.6-0.55,2.91-0.16,3.91c0.08,0.18,0.35,0.13,0.35-0.07
	c0-1.24,0.07-2.49,0.21-3.76c0.01-0.1-0.06-0.2-0.16-0.23C362.06,44.95,361.95,45.01,361.92,45.11 M350.48,41.17l-0.01-2.3
	c-0.01-0.26-0.07-0.51-0.2-0.74l-1.49-2.65c-0.08-0.13-0.2-0.22-0.34-0.25c-7.93-1.57-15.91-2.01-23.95-1.32
	c-3.56,0.31-5.21,2.3-5.15,5.78c0.01,0.23-0.07,0.44-0.21,0.63c-0.74,0.94-1.01,2.04-0.8,3.29c0.89,5.26,0.72,10.46,0.54,15.76
	c-0.34,10.19,0.07,19.38-0.13,29.11c-0.03,1.6,0.67,2.45,2.1,2.56c8.78,0.65,18.05,0.89,27.82,0.71c0.23-0.01,0.43-0.1,0.58-0.27
	c0.89-1.03,1.04-2.15,0.44-3.35c-0.12-0.25-0.17-0.5-0.17-0.78c0.11-2.79,0.13-6.29,0.05-10.5c-0.01-0.58,0.25-0.93,0.77-1.04
	c0.2-0.04,0.35-0.22,0.35-0.42c0.29-9.67,0.3-16.27,0.02-19.81c-0.25-3.1-0.36-5.35-0.35-6.74c0-0.3,0.15-0.47,0.45-0.52l0.29-0.04
	c0.27-0.04,0.38-0.19,0.32-0.46c-0.37-1.76-0.34-3.5,0.1-5.2c0.16-0.64,0.04-1.05-0.7-1.07C350.61,41.53,350.49,41.41,350.48,41.17
	 M361.21,38c0.07-2.3-0.87-4.03-0.44-6.43c0.03-0.19-0.03-0.39-0.19-0.46c-0.24-0.1-0.36-0.02-0.37,0.24
	c-0.08,3.51,0.81,6.89,0.37,10.34c-0.32,2.45-0.51,4.92-0.58,7.4c-0.02,0.4,0.13,0.47,0.43,0.21
	C360.93,48.85,361.17,39.42,361.21,38 M358.96,28.61l-0.88,0.01c-0.07,0-0.12,0.06-0.12,0.13v0.12c0.2,10.95,0.6,19.82,0.91,19.81
	c0.32-0.01,0.41-8.89,0.22-19.84v-0.12C359.08,28.66,359.02,28.61,358.96,28.61 M353.4,39.79c-0.65,1.6-0.89,3.28-0.7,5.03
	c-0.18,4.26-0.02,8.41-0.34,12.55c-0.59,7.7-0.73,15.44-0.42,23.22c-0.49,2.65-0.68,4.73-0.55,6.2c0.16,2,0.15,3.56-0.02,4.68
	c0.48,2.78-0.32,5.69-0.33,7.94c-0.03,3.26,0.01,6.52,0.13,9.79c0.01,0.2,0.17,0.37,0.38,0.37l3.72,0.05
	c0.25,0.01,0.38-0.12,0.38-0.38c-0.1-15.11-0.48-30.29,0.51-45.36c0.35-5.28,0.4-10.63,0.16-16.05l0.42,0.08
	c0.26,0.05,0.4,0.21,0.42,0.47c0.31,4.39,0.44,8.78,0.39,13.17c-0.02,1.45-0.68,3.47-0.74,5.09c-0.44,14.17-0.51,28.33-0.2,42.51
	c0.01,0.39,0.15,0.45,0.43,0.19c1.43-1.31,0.76-13.11,0.35-15.35c-0.27-1.52,0.34-2.75,0.16-4.34c-0.7-6.29-0.46-12.84-0.3-17.92
	c0.02-0.72,0.24-1.49,0.65-2.31c0.11-0.21,0.17-0.44,0.17-0.68l0.6-18.66c0.01-0.25-0.1-0.45-0.31-0.58l-0.22-0.13
	c-0.22-0.13-0.35-0.32-0.41-0.57l-0.78-3.93c0.22-5.06,0.14-10.05-0.24-14.95c0.4-0.62,0.48-1.26,0.26-1.92
	c-0.08-0.23-0.24-0.34-0.47-0.34h-0.36c-0.32,0-0.39,0.13-0.21,0.4c0.37,0.53,0.49,1.15,0.38,1.86c-0.02,0.14-0.12,0.2-0.31,0.19
	c-0.23-0.02-0.35-0.14-0.35-0.36c-0.05-0.82-0.4-1.49-1.06-2c-0.19-0.15-0.4-0.17-0.61-0.04c-0.82,0.49-1.03,1.18-0.64,2.07
	c0.1,0.24,0.15,0.49,0.15,0.75L353.4,39.79 M312.28,102.31c0.42-0.11,0.74,0.02,0.98,0.39l0.17,6.74c0.01,0.59,0.12,0.62,0.32,0.05
	c1.05-2.9,0.2-5.73,0.45-8.09c0.17-1.56,0.46-3.13,0.9-4.7c0.07-0.25,0.4-0.3,0.55-0.09c0.53,0.77-0.59,6.24-0.56,7.79
	c0.03,2.03-0.16,4.03-0.58,6.01c-0.07,0.34,0.06,0.48,0.4,0.41l0.47-0.09c0.25-0.04,0.43-0.26,0.43-0.52v-5.67
	c0-0.25,0.35-0.32,0.43-0.08c0.65,1.75,0.68,5.49-0.77,6.96c-0.28,0.29-0.22,0.43,0.17,0.43h0.89c0.4,0,0.74-0.33,0.74-0.74
	c-0.05-24.02,0.02-48.02,0.03-72.02c0.01-1.94-0.5-3.92-0.65-5.88l3.27-0.94c1.43,0.34,2.44,0.5,3.01,0.49
	c6.84-0.08,13.68-0.06,20.53,0.06c0.13,0.01,0.22-0.05,0.26-0.18l0.07-0.25c0.07-0.21,0.24-0.37,0.46-0.42
	c1.48-0.38,2.97-0.29,4.48,0.28c-0.79,0.53-1.77,0.76-2.93,0.69c-0.05,0-0.1,0.04-0.11,0.09c-0.01,0.05,0.03,0.11,0.08,0.12
	c1.24,0.34,2.38,0.24,3.42-0.29c0.97,0.26,1.71,0.14,2.23-0.35c0.27-0.02,0.4,0.2,0.4,0.67c0,0.35,0.14,0.41,0.4,0.18
	c0.22-0.19,0.21-0.65-0.01-1.39l-0.05-4.15c-0.01-0.55-0.11-0.58-0.32-0.09c-0.04,0.07-0.04,0.16-0.04,0.26
	c0.02,0.29-0.11,0.4-0.39,0.35c-0.4-0.08-0.86-0.3-1.24-0.31c-10.59-0.22-21.14,0.19-31.7,0.08c-0.2-0.01-0.3,0.09-0.31,0.29
	c-0.05,1.11,0.16,2.19,0.63,3.24c-0.52,0.52-1.2,0.75-2.04,0.7c0.17-1.28-0.26-2.32-1.29-3.13c-0.21-0.16-0.52-0.01-0.52,0.25
	c-0.03,2.76,0.14,5.46,0.49,8.11c0.08,0.56-0.35,0.89-0.38,1.5c-0.16,5.14-0.2,10.27-0.14,15.41l-0.66,0.01
	c0.2-4.78-0.08-9.49,0.35-14.25c0.32-3.57-0.32-7.29-0.04-11.06c0.05-0.71,0.97-0.98,1.39-0.4l0.74,0.98c0.19,0.26,0.6,0.12,0.6-0.2
	v-1.28c0-0.3-0.22-0.56-0.53-0.58l-2.75-0.25c-0.31-0.02-0.47,0.11-0.48,0.42c-0.32,8.26-0.36,16.51-0.12,24.76
	c-0.35-0.17-0.59-0.23-0.75-0.19l0.2-24.98c0.01-0.37,0.31-0.67,0.68-0.65c13.8,0.46,27.65,0.45,41.57-0.04
	c2.39-0.08,4.34,0.74,5.85,2.47c0.17,0.19,0.26,0.41,0.28,0.66c2.23,22.51,4.49,45,6.76,67.49c0.16,1.59,0.05,2.87-0.35,3.83
	c-0.11,0.27-0.36,0.46-0.65,0.49l-5.81,0.57c-0.51,0.05-0.96-0.35-0.95-0.87c0.01-0.97,0.1-10.16-0.64-10.24
	c-0.45-0.05-0.85,0.29-0.87,0.75c-0.22,5.29-0.28,10.33-0.18,15.09c0.08,4.43-5.05,3.63-7.7,2.88c-0.26-0.07-0.39-0.24-0.4-0.52
	l-0.22-9.5c-0.01-0.23-0.12-0.35-0.35-0.35l-18.58-0.84c-0.35-0.02-0.52,0.15-0.52,0.5v2.11c0,0.32-0.16,0.47-0.47,0.47h-7.22
	c-0.29,0-0.52-0.23-0.52-0.53v-2.03c0-0.18-0.14-0.33-0.32-0.35l-2.22-0.13c-0.29-0.02-0.52,0.21-0.52,0.49l-0.04,11.65
	c0,0.28-0.13,0.55-0.35,0.73c-1.75,1.34-3.74,1.67-5.99,0.97c-0.43-0.13-0.71-0.52-0.72-0.97L312.28,102.31"/>
<path class="st1" d="M314.25,54.49l0.01,23.6c-1.01,4.21-0.56,8.38-0.75,12.67c0,0.04-0.02,0.06-0.05,0.08
	c-0.07,0.03-0.14,0.04-0.21,0.04c-0.14-0.01-0.22-0.08-0.23-0.23c-0.1-3.45-0.01-8.06,0.26-13.85c0.26-5.53,0.31-13.58,0.14-24.18
	c-0.24-8.25-0.2-16.5,0.12-24.76c0.01-0.31,0.17-0.44,0.48-0.42l2.75,0.25c0.3,0.02,0.53,0.28,0.53,0.58v1.28
	c0,0.32-0.4,0.46-0.6,0.2l-0.74-0.98c-0.43-0.58-1.34-0.31-1.39,0.4c-0.27,3.76,0.36,7.49,0.04,11.06
	C314.18,45.01,314.45,49.72,314.25,54.49z"/>
<path class="st1" d="M348.96,31.7c0.36,1.4,2.35-0.68,2.64-1.18c0.11-0.22,0.09-0.41-0.07-0.59c-1.16-1.22-2.42-1.33-3.77-0.34
	c-0.2,0.14-0.42,0.21-0.67,0.19c-1.17-0.1-2.17-0.52-3.32-0.52c-6.32-0.02-12.65-0.11-18.99-0.26c-0.42-0.01-0.52,0.17-0.3,0.53
	l0.29,0.49c0.15,0.25,0.36,0.33,0.64,0.26c2.8-0.71,5.62-0.77,8.47-0.18c0.23,0.05,0.46,0.04,0.7-0.04c1.98-0.63,3.9-0.52,5.76,0.32
	c0.24,0.11,0.15,0.47-0.11,0.46c-2.88-0.17-5.3,0.23-8.31-0.17c-3.18-0.44-5.92,0.68-8.99,0.58c-0.23-0.01-0.43-0.19-0.44-0.43
	c-0.02-0.24,0.15-0.45,0.38-0.49l0.34-0.06c0.51-0.09,0.61-0.78,0.14-1c-1.04-0.52-2.07-0.46-3.07,0.14
	c-0.98,0.59-0.68,2.08,0.45,2.26c4.01,0.63,7.92-0.94,12.17-0.17c2.24,0.41,3.86,0.27,5.98,0.24c1.67-0.02,2.86-1.08,4.76-0.36
	c0.28,0.11,0.52,0.06,0.74-0.16l0.56-0.55c0.19-0.18,0.4-0.24,0.64-0.17l2.99,0.81C348.78,31.36,348.91,31.49,348.96,31.7z
	 M352.2,31.98l-0.79,0.54c-0.52,0.5-1.27,0.62-2.23,0.35l-0.46-0.61c-1.51-0.56-3.01-0.65-4.48-0.28c-0.22,0.05-0.39,0.21-0.46,0.42
	l-0.07,0.25c-0.04,0.13-0.13,0.19-0.26,0.18c-6.85-0.12-13.69-0.14-20.53-0.06c-0.58,0.01-1.58-0.16-3.01-0.49l-1.12-0.63
	c-0.47-1.05-0.68-2.13-0.63-3.24c0.01-0.2,0.11-0.3,0.31-0.29c10.57,0.11,21.11-0.3,31.7-0.08c0.38,0.01,0.84,0.23,1.24,0.31
	c0.28,0.05,0.41-0.06,0.39-0.35c-0.01-0.1,0-0.18,0.04-0.26c0.2-0.49,0.31-0.46,0.32,0.09L352.2,31.98"/>
<path class="st1" d="M354.36,78.49c-0.64,4.48-0.83,8.82-0.29,13.3c0.12,0.97,0.1,1.84-0.07,2.63c-0.6,2.89-0.71,5.59-0.32,8.09
	c0.11,0.74,0.6,5.54-1.08,5.22c-0.23-0.04-0.38-0.28-0.32-0.51c0.61-2.25,0.77-4.48,0.48-6.69c-0.14-1.04,0.46-5.91,0.17-6.11
	c-0.24-0.17-0.39-0.1-0.44,0.18c-0.76,4.19-0.4,8.37-0.5,12.58c-0.01,0.72,0.76,1.18,1.39,0.83c1.88-1.06,1.24-10.42,1.19-12.64
	c-0.01-0.73,0-1.32,0.04-1.77c0.09-0.98,0.13-1.56,0.12-1.73c-0.23-3.85-0.19-7.66,0.13-11.44c-0.23-3.98,0.51-8.26-0.4-12.07
	c-0.52-2.21-0.73-4.45-0.62-6.73c0.01-0.26-0.11-0.39-0.38-0.39h-0.33c-0.29,0-0.41,0.14-0.39,0.43c0.34,3.91-0.35,7.7-0.13,12.91
	c0.01,0.23,0.13,0.35,0.37,0.35h0.63c0.26,0,0.41,0.13,0.43,0.4L354.36,78.49z M354.45,57.19c0.53,2.38,0.62,4.79,0.26,7.23
	c-0.01,0.07,0.03,0.13,0.09,0.14c0.06,0.02,0.12,0.04,0.19,0.06c0.2,0.05,0.32-0.01,0.35-0.22c0.41-2.03-0.38-5.77,0.25-7.12
	c0.1-0.21,0.04-0.36-0.18-0.45c-1.13-0.48-1.57-1.34-1.33-2.59c0.04-0.2,0.17-0.31,0.38-0.31h0.35c0.26,0,0.4,0.3,0.24,0.5
	c-0.29,0.35-0.33,0.75-0.1,1.19c0.09,0.17,0.35,0.12,0.37-0.07l0.18-2.19c0.06-0.74-0.89-1.08-1.31-0.48
	c-0.76,1.06-1.07,2.26-0.91,3.64c0.02,0.15,0.1,0.23,0.25,0.23h0.38C354.16,56.74,354.39,56.93,354.45,57.19 M356.3,29.94h0.4
	c0.38,4.91,0.46,9.89,0.24,14.95c-0.53-1.03-0.76-2.11-0.69-3.25c0.25-3.66-0.12-6.79-0.68-10.4c-0.04-0.24-0.14-0.45-0.31-0.62
	c-0.51-0.52-0.63-1.26-0.36-2.23c0.04-0.14-0.03-0.27-0.15-0.33c-0.13-0.05-0.27-0.01-0.35,0.1c-0.46,0.72-0.52,1.43-0.19,2.12
	c0.09,0.19,0.13,0.4,0.11,0.61l-0.35,4.45c-0.01,0.24,0.16,0.45,0.39,0.48l0.8,0.11c0.21,0.03,0.37,0.22,0.36,0.43
	c-0.12,3.94,0.13,7.76,0.76,11.45c0.25,5.42,0.2,10.77-0.16,16.05c-0.99,15.08-0.61,30.26-0.51,45.36c0,0.26-0.13,0.38-0.38,0.38
	l-3.72-0.05c-0.2,0-0.37-0.16-0.38-0.37c-0.11-3.27-0.16-6.53-0.13-9.79c0.01-2.25,0.81-5.16,0.33-7.94c0.2-0.13,0.39-0.2,0.58-0.22
	c0.25-0.03,0.4,0.08,0.46,0.33l0.23,1.12c0.03,0.13,0.15,0.22,0.29,0.22c0.14-0.02,0.24-0.13,0.25-0.26
	c0.12-3.03-0.73-6.04-0.5-8.84c0.14-1.63,0.9-6.68,0.42-7.18c-0.26-0.28-0.42-0.23-0.46,0.15c-0.09,0.73,0.29,3.78-0.69,3.81
	c-0.31-7.78-0.17-15.52,0.42-23.22c0.32-4.13,0.16-8.29,0.34-12.55c0.88,1.96,1.12,3.96,0.73,6c-0.08,0.38,0.34,0.67,0.67,0.48
	l0.59-0.34c0.18-0.11,0.23-0.25,0.13-0.43c-0.72-1.52-0.1-2.66-0.34-4.09c-0.38-2.26-0.63-3.98-0.02-6.38
	c0.16-0.59,0.57-2.73,0.12-3.21c-0.19-0.2-0.29-0.17-0.32,0.1c-0.1,1.18-0.39,2.12-0.87,2.83l0.08-9.25c0-0.26-0.05-0.51-0.15-0.75
	c-0.38-0.89-0.17-1.58,0.64-2.07c0.21-0.13,0.41-0.11,0.61,0.04c0.65,0.51,1,1.18,1.06,2c0.01,0.22,0.13,0.34,0.35,0.36
	C356.18,30.14,356.28,30.08,356.3,29.94"/>
<path class="st2" d="M356.7,29.94h-0.4c0.11-0.71-0.01-1.33-0.38-1.86c-0.18-0.26-0.11-0.4,0.21-0.4h0.36
	c0.23,0,0.39,0.11,0.47,0.34C357.18,28.68,357.1,29.32,356.7,29.94z"/>
<path class="st3" d="M356.94,44.89l0.78,3.93c0.05,0.25,0.19,0.44,0.41,0.57l0.22,0.13c0.22,0.13,0.32,0.32,0.31,0.58l-0.6,18.66
	c-0.01,0.23-0.07,0.47-0.17,0.68c-0.41,0.82-0.63,1.59-0.65,2.31c-0.17,5.08-0.4,11.62,0.3,17.92c0.18,1.6-0.43,2.82-0.16,4.34
	c0.4,2.24,1.08,14.04-0.35,15.35c-0.29,0.26-0.43,0.2-0.43-0.19c-0.31-14.17-0.24-28.34,0.2-42.51c0.05-1.63,0.72-3.65,0.74-5.09
	c0.05-4.39-0.08-8.78-0.39-13.17c-0.02-0.26-0.16-0.42-0.42-0.47l-0.42-0.08c-0.63-3.69-0.89-7.51-0.76-11.45
	c0.01-0.21-0.15-0.4-0.36-0.43l-0.8-0.11c-0.23-0.03-0.4-0.24-0.39-0.48l0.35-4.45c0.01-0.21-0.02-0.42-0.11-0.61
	c-0.33-0.7-0.27-1.4,0.19-2.12c0.07-0.11,0.22-0.16,0.35-0.1c0.12,0.06,0.19,0.19,0.15,0.33c-0.27,0.97-0.15,1.71,0.36,2.23
	c0.17,0.17,0.27,0.38,0.31,0.62c0.56,3.61,0.93,6.74,0.68,10.4C356.18,42.79,356.41,43.87,356.94,44.89z"/>
<path class="st3" d="M358.96,28.61c0.06,0,0.12,0.05,0.12,0.12v0.12c0.2,10.95,0.1,19.83-0.22,19.84
	c-0.31,0.01-0.71-8.86-0.91-19.81v-0.12c0-0.07,0.05-0.13,0.12-0.13L358.96,28.61z"/>
<path class="st1" d="M315.87,79.06c-0.64,3.1,0,5.97-0.06,8.7c-0.04,2.19-0.23,4.33-0.53,6.42c-0.02,0.14,0.07,0.28,0.21,0.32
	c0.14,0.04,0.29-0.04,0.35-0.17c1.26-2.99,0.68-6.84,0.55-10.01c-0.04-1.33,0.53-3.46-0.22-5.29
	C316.04,78.72,315.93,78.73,315.87,79.06z M316.58,59.6c0-0.12-0.1-0.23-0.22-0.23l-0.26,0c-0.12,0-0.23,0.1-0.23,0.22l-0.07,10.72
	c0,0.12,0.1,0.23,0.22,0.23l0.26,0c0.12,0,0.23-0.1,0.23-0.22L316.58,59.6 M316.47,41.63c0-0.11-0.09-0.21-0.2-0.21l-0.13,0
	c-0.11-0.01-0.21,0.08-0.21,0.2l-0.23,6.64c0,0.11,0.09,0.21,0.2,0.21l0.13,0c0.11,0.01,0.21-0.08,0.21-0.2L316.47,41.63
	 M316.75,32.35c0.05,0.28,0.01,0.57-0.11,0.87c0.15,1.96,0.66,3.94,0.65,5.88c-0.01,24-0.07,48-0.03,72.02
	c0,0.41-0.33,0.74-0.74,0.74h-0.89c-0.4,0-0.45-0.14-0.17-0.43c1.46-1.47,1.43-5.21,0.77-6.96c-0.09-0.23-0.43-0.16-0.43,0.08v5.67
	c0,0.25-0.18,0.47-0.43,0.52l-0.47,0.09c-0.34,0.07-0.47-0.08-0.4-0.41c0.42-1.99,0.62-3.99,0.58-6.01
	c-0.03-1.54,1.09-7.02,0.56-7.79c-0.15-0.21-0.48-0.16-0.55,0.09c-0.43,1.57-0.73,3.14-0.9,4.7c-0.26,2.36,0.6,5.18-0.45,8.09
	c-0.2,0.56-0.31,0.54-0.32-0.05l-0.17-6.74c1.08-4.4,0.14-7.3,0.66-11.08c0.61-4.52,0.26-8.94,0.68-13.46
	c1.59-1.33,1.04-4.71,0.8-6.41c-0.77-5.62-0.28-11.58-0.49-17.28c-0.06-5.13-0.02-10.27,0.14-15.41c0.02-0.61,0.46-0.94,0.38-1.5
	c-0.35-2.65-0.52-5.35-0.49-8.11c0-0.26,0.31-0.41,0.52-0.25C316.49,30.04,316.92,31.08,316.75,32.35"/>
<path class="st3" d="M349.46,29.8c-0.08-0.04-0.15-0.06-0.23-0.07c-0.27-0.04-0.45,0.07-0.54,0.34c-0.23,0.72,0.01,1.15,0.72,1.29
	c0.36,0.07,0.71-0.11,0.87-0.43c0.37-0.77,0.21-1.12-0.48-1.07C349.68,29.86,349.56,29.85,349.46,29.8z M322.08,29.94l-1.36-0.24
	c-0.27-0.04-0.5,0.2-0.43,0.46c0.12,0.43,0.38,0.73,0.79,0.91c0.29,0.13,0.53,0.07,0.75-0.14l0.43-0.43
	C322.45,30.31,322.35,29.98,322.08,29.94 M348.57,31.3l-2.99-0.81c-0.25-0.07-0.46-0.01-0.64,0.17l-0.56,0.55
	c-0.22,0.22-0.46,0.27-0.74,0.16c-1.9-0.72-3.1,0.34-4.76,0.36c-2.11,0.03-3.73,0.17-5.98-0.24c-4.25-0.77-8.16,0.8-12.17,0.17
	c-1.12-0.18-1.42-1.66-0.45-2.26c1-0.61,2.03-0.66,3.07-0.14c0.47,0.22,0.37,0.91-0.14,1l-0.34,0.06c-0.23,0.04-0.4,0.25-0.38,0.49
	c0.02,0.23,0.21,0.42,0.44,0.43c3.07,0.1,5.81-1.01,8.99-0.58c3.01,0.4,5.43,0,8.31,0.17c0.26,0.01,0.35-0.35,0.11-0.46
	c-1.86-0.84-3.78-0.95-5.76-0.32c-0.23,0.07-0.46,0.09-0.7,0.04c-2.84-0.59-5.66-0.53-8.47,0.18c-0.28,0.07-0.49-0.02-0.64-0.26
	l-0.29-0.49c-0.22-0.36-0.12-0.53,0.3-0.53c6.34,0.14,12.67,0.23,18.99,0.26c1.15,0,2.15,0.42,3.32,0.52
	c0.25,0.02,0.46-0.04,0.67-0.19c1.35-1,2.6-0.88,3.77,0.34c0.16,0.17,0.19,0.37,0.07,0.59c-0.29,0.49-2.28,2.57-2.64,1.18
	C348.91,31.49,348.78,31.36,348.57,31.3"/>
<path class="st1" d="M322.08,29.94c0.27,0.05,0.38,0.38,0.18,0.56l-0.43,0.43c-0.22,0.22-0.46,0.27-0.75,0.14
	c-0.4-0.18-0.67-0.48-0.79-0.91c-0.07-0.26,0.16-0.51,0.43-0.46L322.08,29.94z"/>
<path class="st1" d="M349.8,29.86c0.69-0.06,0.85,0.29,0.48,1.07c-0.16,0.32-0.51,0.5-0.87,0.43c-0.71-0.14-0.95-0.57-0.72-1.29
	c0.09-0.26,0.27-0.38,0.54-0.34c0.08,0.01,0.16,0.03,0.23,0.07C349.56,29.85,349.68,29.86,349.8,29.86z"/>
<path class="st3" d="M361.21,38c-0.04,1.42-0.28,10.85-0.79,11.3c-0.3,0.26-0.44,0.19-0.43-0.21c0.07-2.48,0.25-4.95,0.58-7.4
	c0.44-3.44-0.45-6.82-0.37-10.34c0.01-0.26,0.13-0.34,0.37-0.24c0.16,0.07,0.22,0.27,0.19,0.46C360.34,33.97,361.28,35.7,361.21,38z
	"/>
<path class="st2" d="M91.51,99.35h-1c-0.12-0.01-0.22,0.09-0.22,0.21l-0.01,0.75c-0.01,0.77,0.27,1.4,0.61,1.4h0.19
	c0.35,0,0.62-0.62,0.63-1.38l0.01-0.75C91.73,99.46,91.63,99.36,91.51,99.35z M93.14,100.11l0.44-0.9c0.04-0.1,0.03-0.18-0.04-0.26
	l-0.19-0.19c-0.18-0.18-0.49-0.13-0.59,0.11c-0.55,1.21-0.32,2.16,0.71,2.86c0.12,0.08,0.28,0.06,0.37-0.05
	c0.1-0.11,0.09-0.27-0.01-0.38l-0.58-0.58C93.06,100.54,93.03,100.33,93.14,100.11 M92.07,97.93c-0.34,0.5-0.03,0.46,0.93-0.1
	c0.1-0.06,0.06-0.22-0.07-0.22c-0.1,0.01-0.22,0.01-0.34,0.02C92.39,97.64,92.19,97.75,92.07,97.93 M90.38,95.8
	c-0.13-0.19-0.38-0.25-0.58-0.15c-0.2,0.11-0.3,0.35-0.22,0.56l0.65,1.73c0.14,0.38,0.29,0.38,0.42,0
	C90.91,97.17,90.82,96.46,90.38,95.8 M91.9,95.32c-0.01,0.15,0.13,0.27,0.27,0.23l0.94-0.24c0.2-0.05,0.31-0.18,0.31-0.39v-0.64
	c0-0.22-0.11-0.31-0.33-0.28C92.35,94.12,91.95,94.56,91.9,95.32 M86.47,94.41c-0.08,0.67,0.17,0.63,0.74-0.11
	c0.12-0.16,0.08-0.24-0.12-0.24c-0.08,0-0.17,0-0.25,0.01C86.61,94.07,86.49,94.19,86.47,94.41 M90.57,92.79
	c0.26,0.28,0.47,0.25,0.65-0.1c0.07-0.14-0.01-0.32-0.16-0.36l-0.49-0.15c-0.21-0.07-0.4,0.12-0.35,0.33
	C90.26,92.69,90.38,92.79,90.57,92.79 M90.63,90.47c0.87-0.16,1.48,0.27,1.83,1.27c0.03,0.08,0.08,0.11,0.17,0.08
	c0.07-0.02,0.14-0.04,0.19-0.07c0.18-0.07,0.22-0.18,0.13-0.34c-0.52-0.89-1.23-1.31-2.12-1.26c-0.14-0.04-0.23-0.18-0.28-0.41
	c-0.03-0.17-0.11-0.2-0.25-0.1l-1.85,1.27c-0.16,0.11-0.2,0.26-0.12,0.44c0.03,0.08,0.06,0.16,0.09,0.22
	c0.07,0.18,0.29,0.25,0.45,0.14L90.63,90.47 M87.87,88.4c-0.51-0.1-1.02-0.07-1.52,0.08c-0.12,0.04-0.19,0.16-0.16,0.28
	c0.03,0.12,0.15,0.2,0.28,0.2c0.53-0.04,1-0.17,1.42-0.38C88.07,88.5,88.06,88.44,87.87,88.4 M90.75,86.14
	c-0.37,0.02-0.43,0.25-0.18,0.66c0.07,0.11,0.2,0.17,0.32,0.14l0.38-0.08c0.32-0.06,0.41-0.49,0.13-0.66
	C91.08,85.99,90.86,85.97,90.75,86.14 M88.38,85.23c0.13,0.11,0.33,0.04,0.38-0.12c0.22-0.8-0.12-1.33-1.04-1.57
	c-0.46-0.12-0.77,0.47-0.4,0.78L88.38,85.23 M90.74,83.58c-0.16-0.35-0.38-0.5-0.66-0.43c-0.29,0.06-0.5,0.33-0.48,0.63
	c0.02,0.29,0.25,0.54,0.55,0.57c0.16,0.02,0.31-0.02,0.44-0.13C90.8,84.04,90.85,83.83,90.74,83.58 M77.73,81.48
	c-0.25,0.59-0.33,1.21-0.22,1.86c0.05,0.38,0.15,0.4,0.29,0.04c0.23-0.59,0.31-1.21,0.25-1.85C78.03,81.37,77.79,81.33,77.73,81.48
	 M90.94,81.35c0.26,0.51,0.65,0.74,1.17,0.69c0.43-0.04,0.49-0.2,0.16-0.49c-0.42-0.37-0.92-0.59-1.48-0.64
	c-0.2-0.02-0.25,0.06-0.17,0.25C90.7,81.31,90.81,81.37,90.94,81.35 M90.5,78.19l-1.47,1.25c-0.21,0.17-0.18,0.27,0.1,0.29
	c1.05,0.08,3.18-0.75,2.5-2.21c-0.12-0.26-0.43-0.41-0.7-0.37c-0.28,0.05-0.43,0.3-0.35,0.56c0.04,0.12,0.05,0.22,0.03,0.29
	C90.6,78.08,90.56,78.14,90.5,78.19 M91.89,76.26c0.2-0.06,0.31-0.31,0.24-0.56c-0.07-0.25-0.29-0.42-0.49-0.36
	c-0.2,0.06-0.31,0.31-0.24,0.56C91.46,76.15,91.68,76.32,91.89,76.26 M91.18,73.08c0.03-0.4-0.51-0.54-0.69-0.19
	c-0.16,0.32-0.06,0.58,0.32,0.77c0.15,0.07,0.32-0.02,0.34-0.19L91.18,73.08 M88.8,71.19c0.25-0.01,0.5-0.01,0.78,0.01
	c0.51,0.04,0.6-0.14,0.26-0.52c-0.35-0.4-0.76-0.41-1.25-0.03C88.36,70.83,88.5,71.2,88.8,71.19 M91.23,67.92
	c0.7,0.45,1.05,0.41,1.04-0.12c-0.01-0.2-0.17-0.37-0.37-0.37h-0.54C91.1,67.43,91,67.78,91.23,67.92 M79.05,61.85
	c0.16,1.46-0.47,9.24-0.86,9.86c-0.14,0.21-0.21,0.43-0.22,0.68l-0.24,7.63c-0.01,0.5,0.1,0.53,0.35,0.1
	c0.48-0.84,0.58-1.72,0.32-2.65c-0.07-0.25-0.07-0.52-0.02-0.77c1.06-5.11,0.61-9.87,1.9-14.3c0.07-0.25,0.07-0.5-0.01-0.74
	c-0.49-1.53-0.41-3.04,0.22-4.53c0.1-0.23,0.11-0.49,0.04-0.74c-0.25-0.86-0.31-1.25,0-2.15c0.74-2.15,0.74-4.29,0.01-6.43
	c-0.09-0.26-0.02-0.48,0.2-0.64l0.84-0.61c0.29-0.22,0.14-0.68-0.22-0.68l-1.49-0.02c-0.25,0-0.45,0.19-0.46,0.43l-0.17,3.83
	c-0.01,0.22,0.05,0.41,0.17,0.59c0.65,0.95-0.11,6.01-0.3,7.32C78.93,59.27,78.9,60.55,79.05,61.85 M88.68,34.15l-2.36,0.11
	c-0.25,0.01-0.4,0.3-0.27,0.52l0.2,0.35c0.11,0.19,0.28,0.25,0.48,0.16l2-0.86C88.88,34.36,88.83,34.14,88.68,34.15 M81.31,34.49
	L80.59,34c-0.29-0.2-0.7-0.04-0.77,0.31c-0.11,0.47-0.06,0.95,0.13,1.44c0.1,0.25,0.13,0.5,0.08,0.75
	c-0.32,1.85-1.24,5.87-0.49,8.16c0.08,0.25,0.38,0.35,0.59,0.19l0.51-0.38c0.13-0.1,0.17-0.28,0.07-0.4l-0.53-0.8
	c-0.17-0.26-0.12-0.46,0.16-0.59c1.27-0.62,1.94-1.62,2.02-3.01c0.01-0.22,0.08-0.41,0.21-0.59l1.25-1.69
	c0.17-0.23,0.23-0.48,0.19-0.76c-0.14-0.9,0.22-1.61,1.06-2.13c0.11-0.07,0.15-0.21,0.08-0.33c-0.08-0.12-0.23-0.18-0.38-0.15
	l-2.75,0.62C81.78,34.69,81.53,34.65,81.31,34.49 M93.8,96.4c-0.05,0.56,0.18,0.8,0.71,0.71c0.28-0.05,0.54,0.17,0.52,0.46
	c-0.16,3.39-0.19,5.59-0.1,6.6c0.14,1.54-0.37,2.27-1.97,2.35c-4.55,0.25-9.83,0.33-15.84,0.26c-1.57-0.02-1.88-0.87-1.86-2.32
	c0.22-24.93,1.31-48.48,3.27-70.64c0.11-1.32,0.91-1.99,2.39-2.03c4.43-0.11,8.86-0.17,13.29-0.17c3.74,0,3.51,0.94,3.22,4.31
	c-1.24,14.87-2.01,29.76-2.33,44.68c-0.01,0.25-0.11,0.45-0.33,0.59c-0.72,0.46-1.15,1.14-1.29,2.05c-0.04,0.25,0.19,0.44,0.43,0.37
	c0.42-0.13,0.69-0.44,0.81-0.94c0.03-0.11,0.14-0.18,0.25-0.17c0.11,0.02,0.19,0.13,0.19,0.25l-0.07,3.48
	c-0.01,0.35-0.19,0.52-0.55,0.49c-0.64-0.04-1.25-0.05-1.83-0.04c-0.11,0.01-0.23,0.08-0.28,0.18s0,0.19,0.1,0.21
	c0.16,0.04,0.32,0.04,0.49,0.03c0.33-0.03,0.61,0.24,0.6,0.58l-0.04,0.75c-0.01,0.2,0.08,0.33,0.28,0.37c0.5,0.1,0.8-0.08,0.93-0.53
	c0.05-0.22,0.12-0.22,0.2-0.01c0.45,1.18,0.17,1.98-0.85,2.4c-0.11,0.04-0.23,0.16-0.29,0.26c-0.04,0.11-0.01,0.17,0.1,0.15
	c0.36-0.07,0.67,0.01,0.92,0.22c0.14,0.12,0.2,0.27,0.17,0.46c-0.01,0.08-0.04,0.16-0.08,0.25c-0.08,0.17-0.11,0.35-0.1,0.54
	l0.28,3.44c0.02,0.3-0.28,0.51-0.55,0.37l-0.37-0.2C94.05,96.04,93.81,96.18,93.8,96.4"/>
<path class="st4" d="M318.79,31.65l1.12,0.63l-3.27,0.94c0.12-0.3,0.16-0.59,0.11-0.87C317.59,32.4,318.27,32.17,318.79,31.65z"/>
<path class="st3" d="M352.2,31.98c0.23,0.73,0.23,1.2,0.01,1.39c-0.26,0.23-0.4,0.17-0.4-0.18c0-0.47-0.13-0.69-0.4-0.67
	L352.2,31.98z"/>
<path class="st3" d="M348.72,32.26l0.46,0.61c-1.04,0.53-2.18,0.63-3.42,0.29c-0.05-0.01-0.09-0.07-0.08-0.12
	c0.01-0.05,0.06-0.09,0.11-0.09C346.95,33.02,347.93,32.8,348.72,32.26z"/>
<path class="st2" d="M26.16,102.73c0.17-0.22,0.21-0.45,0.1-0.7c-0.08-0.2-0.35-0.24-0.49-0.07c-0.26,0.33-0.26,0.7,0,1.1
	c0.14,0.2,0.25,0.19,0.35-0.03C26.16,102.94,26.16,102.84,26.16,102.73z M19.41,99.45c-0.01-0.22-0.12-0.34-0.32-0.36
	c-0.23-0.03-0.34,0.07-0.3,0.3l0.08,0.62c0.04,0.3,0.43,0.4,0.61,0.15C19.64,99.93,19.62,99.7,19.41,99.45 M21.41,96.49
	c-0.68-0.63-0.74-0.5-0.17,0.38c0.01,0.01,0.02,0.01,0.03,0.01l0.15-0.16C21.5,96.64,21.49,96.56,21.41,96.49 M25.22,95.62
	c0.43,0.39,0.77,0.35,1.03-0.11c0.24-0.42-0.28-0.86-0.65-0.56l-0.37,0.29C25.08,95.37,25.08,95.5,25.22,95.62 M40.65,94.55
	c-3.31-2.31-1.48,0.69-0.09,0.43C40.92,94.91,40.95,94.77,40.65,94.55 M58.69,91.1c0.19,0.2,0.42,0.2,0.7,0.01
	c0.16-0.12,0.2-0.35,0.07-0.51l-0.22-0.26c-0.26-0.31-0.75-0.2-0.85,0.18C58.3,90.91,58.4,91.1,58.69,91.1 M46.02,84.5
	c0.35-0.49,0.45-1.09,0.31-1.78c-0.08-0.35-0.26-0.43-0.56-0.21c-0.49,0.35-0.8,0.86-0.92,1.51C44.73,84.7,45.63,85.07,46.02,84.5
	 M10.44,86.2c-0.29,0.79-1.01,0.99-0.98,2.03c0.1,3.94,1.02,7.85,0.84,11.71c-0.08,1.67-0.17,3.35-0.26,5.05
	c-0.02,0.41,0.15,0.52,0.52,0.34c0.57-0.31,0.81-0.94,0.72-1.9c-0.63-6.76-0.46-13.51,0.49-20.28c0.02-0.17-0.05-0.34-0.2-0.44
	C10.42,82,10.71,85.46,10.44,86.2 M43.2,83.29c0.4-0.1,0.47-0.31,0.19-0.61c-0.29-0.33-0.67-0.42-1.12-0.28
	c-0.28,0.09-0.34,0.25-0.17,0.5C42.36,83.29,42.73,83.41,43.2,83.29 M43.36,80.63c0.52,0.37,0.97,0.31,1.37-0.16
	c0.29-0.35-0.08-0.86-0.5-0.69l-0.81,0.32C43.08,80.23,43.05,80.41,43.36,80.63 M40.76,79.65c-0.06-0.2-0.31-0.31-0.57-0.24
	c-0.26,0.07-0.41,0.29-0.36,0.5c0.06,0.2,0.31,0.31,0.57,0.24C40.65,80.08,40.81,79.86,40.76,79.65 M11.25,78.37
	c0.09-0.26,0.1-0.54,0.02-0.85c-0.08-0.35-0.18-0.35-0.29-0.02c-0.35,1.11-0.38,2.23-0.07,3.35c0.14,0.5,0.25,0.5,0.35-0.01
	c0.11-0.61,0.09-1.19-0.05-1.77C11.17,78.83,11.18,78.6,11.25,78.37 M41.39,75.38c0.31,0.01,0.46-0.14,0.46-0.45l-0.01-0.47
	c0-0.28-0.28-0.46-0.53-0.36l-0.62,0.26c-0.23,0.1-0.32,0.38-0.19,0.58C40.67,75.22,40.97,75.37,41.39,75.38 M47.1,73.11l-1.18-0.05
	c-0.46-0.02-0.61,0.6-0.2,0.79c0.67,0.32,1.19,0.21,1.58-0.34C47.41,73.35,47.3,73.12,47.1,73.11 M11.49,72.69v0.89
	c0,0.43,0.1,0.46,0.3,0.07c0.2-0.37,0.19-0.72-0.02-1.05C11.58,72.31,11.49,72.34,11.49,72.69 M40.66,70
	c0.17-0.15,0.09-0.51-0.17-0.8c-0.27-0.29-0.62-0.39-0.79-0.24c-0.17,0.15-0.09,0.51,0.17,0.8C40.14,70.05,40.49,70.15,40.66,70
	 M58.93,50.25l-0.53,0.58c-0.17,0.19-0.04,0.49,0.22,0.49c0.56-0.01,0.86-0.29,0.89-0.83C59.52,50.18,59.14,50.02,58.93,50.25
	 M51.96,82.39c-1.06,2.17-3.04,6.19-5.94,12.07c-2.89,5.87-10.74,10.22-13.72,1.41c-1.44-4.26-2.87-8.52-4.29-12.78
	c-0.2-0.58-0.31-0.56-0.34,0.04c-0.38,6.9-0.58,13.78-0.59,20.65c0,0.64-0.16,1.31-0.49,2.02c-0.12,0.28-0.4,0.46-0.7,0.45
	l-4.63-0.07c-0.21,0-0.41,0.03-0.61,0.1c-2.99,0.99-7.89,0.67-11.08,0.72c-1.08,0.02-1.97-0.82-2.02-1.9c-0.05-1.53-0.04-3.2,0.06-5
	c1.57-30.15,2.62-51.61,3.13-64.37c0.07-1.59,0.82-2.43,2.28-2.52c0.98-0.07,12.86-1,11.95,0.46c-0.12,0.19,0.12,0.4,0.35,0.31
	c1.07-0.46,2.02-0.25,2.87,0.6c0.2,0.21,0.17,0.36-0.11,0.45c-2.14,0.7-5.29-0.61-7.68-0.5c-3.49,0.17-5.95,0.15-8.87,0.59
	c-0.22,0.03-0.29,0.15-0.23,0.35c0.13,0.42,16.48,0.53,18.37,0.78c0.24,0.04,0.43,0.16,0.56,0.36c0.89,1.36,1.57,2.81,2.02,4.37
	c2.45,8.5,4.89,16.96,7.31,25.41c0.04,0.15,0.25,0.16,0.31,0.01L52.53,36.5c0.1-0.22,0.31-0.38,0.57-0.39l10.32-0.32
	c0.22-0.01,0.4-0.1,0.53-0.28l0.23-0.3c0.13-0.17,0-0.41-0.21-0.4l-6.19,0.27c-0.26,0.01-0.48-0.08-0.64-0.3l-0.36-0.48
	c-0.21-0.28-0.4-0.27-0.59,0.03c-0.56,0.93-1.44,1.18-2.62,0.75c-0.35-0.13-0.43-0.59-0.13-0.83l1.93-1.54
	c0.13-0.1,0.28-0.15,0.44-0.16c3.09-0.05,6.91-0.37,9.54,1.13c3.55,2.03,5.32,5.45,5.34,10.26c0.07,20.39,0.17,40.71,0.3,60.96
	c0.01,1.09-0.89,1.98-1.98,1.96l-16.22-0.29c-0.69-0.02-1.28-0.51-1.41-1.19c-0.22-1.11-0.24-2.44-0.08-4.01
	c0.63-6.26,0.94-12.57,0.94-18.93C52.22,82.3,52.02,82.27,51.96,82.39"/>
<path class="st2" d="M133.36,98.74c0.17,0,0.23-0.11,0.17-0.34c-0.06-0.2-0.19-0.27-0.39-0.19l-0.75,0.27
	c-0.19,0.08-0.32,0.28-0.27,0.49c0.04,0.2,0.23,0.35,0.44,0.33c0.2-0.01,0.38-0.16,0.55-0.42C133.16,98.8,133.26,98.74,133.36,98.74
	z M138.28,96.64c-0.11-0.16-0.22-0.34-0.31-0.53c-0.07-0.16-0.18-0.18-0.32-0.08c-0.46,0.35,0.43,0.99,0.68,1.19
	c0.17,0.13,0.4-0.04,0.33-0.24C138.58,96.75,138.45,96.64,138.28,96.64 M114.43,95.49c0.7-0.34,0.53-0.45-0.5-0.32
	c-0.03,0-0.04,0.04-0.02,0.06c0.04,0.05,0.08,0.11,0.12,0.16C114.14,95.54,114.27,95.57,114.43,95.49 M131.76,93.45
	c0.53,0.41,1.03,0.34,1.51-0.2c0.19-0.21,0.14-0.32-0.13-0.32h-1.2C131.67,92.93,131.55,93.28,131.76,93.45 M112.68,92.35
	c-0.14-0.35-0.34-0.65-0.59-0.89c-0.08-0.07-0.2-0.07-0.28,0.02c-0.08,0.09-0.1,0.23-0.04,0.35c0.3,0.57,0.68,1.07,1.13,1.51
	c0.14,0.13,0.38,0.04,0.4-0.15c0.01-0.17-0.08-0.31-0.26-0.43C112.87,92.67,112.75,92.53,112.68,92.35 M136.54,91.63
	c0.22,0.4,0.59,0.51,1.12,0.31c0.29-0.11,0.25-0.52-0.06-0.58c-0.57-0.1-0.93-0.38-1.08-0.85c-0.13-0.44-0.35-0.49-0.68-0.17
	c-0.66,0.67-0.82,1.5-0.5,2.51c0.06,0.19,0.34,0.2,0.4,0.01c0.14-0.4,0.19-0.83,0.16-1.28C135.88,91.26,136.36,91.3,136.54,91.63
	 M133.59,89.32c0.74,0.85,0.69,0.71-0.15-0.43c-0.02-0.03-0.02-0.03-0.02,0.01C133.49,89.18,133.35,89.05,133.59,89.32
	 M129.19,89.32c-0.21,0.19-0.2,0.44,0.01,0.75c0.13,0.18,0.4,0.09,0.4-0.13v-1.22c0-0.32-0.09-0.35-0.26-0.08
	C129.21,88.85,129.15,89.08,129.19,89.32 M133.97,85.39l1.23,0.46c0.55,0.21,0.6,0.12,0.17-0.28c-0.47-0.43-0.88-0.64-1.25-0.64
	C133.21,84.93,133.16,85.08,133.97,85.39 M133.68,86.76c0.01-1-1.69-0.83-1.21-2.26c0.07-0.2,0.01-0.37-0.16-0.49
	c-0.34-0.22-0.71-0.3-1.12-0.23c-0.26,0.04-0.34,0.36-0.14,0.53c0.85,0.71,1.43,1.57,1.76,2.59c0.07,0.21,0.28,0.34,0.5,0.31
	C133.52,87.17,133.68,86.98,133.68,86.76 M113.19,81.75c-0.14-0.07-0.3,0.05-0.28,0.21L113,82.6c0.02,0.17,0.17,0.29,0.34,0.29
	c0.17,0,0.32-0.12,0.34-0.29C113.74,82.21,113.58,81.92,113.19,81.75 M112.67,79.99c-0.16,0.11-0.28,0.25-0.38,0.4
	c-0.13,0.22-0.07,0.34,0.18,0.37l0.64,0.08c0.17,0.02,0.32-0.08,0.36-0.24c0.04-0.16-0.03-0.33-0.18-0.4l-0.49-0.22
	C112.77,79.96,112.71,79.96,112.67,79.99 M111.05,77.78c-0.29,0.04-0.5,0.18-0.62,0.44c-0.15,0.29-0.11,0.55,0.14,0.76
	c0.38,0.34,0.84,0.4,1.39,0.18c0.24-0.1,0.28-0.42,0.06-0.56c-0.54-0.35-0.55-0.68-0.04-0.97c0.19-0.11,0.22-0.25,0.06-0.41
	c-0.21-0.21-0.48,0.09-0.58,0.28C111.38,77.67,111.24,77.76,111.05,77.78 M110.18,77.29c0.19-0.29-0.16-0.64-0.45-0.44l-0.5,0.32
	c-0.25,0.16-0.14,0.55,0.16,0.56C109.71,77.74,109.98,77.59,110.18,77.29 M126.03,76.96c-0.48-0.04-0.84-0.01-1.08,0.05
	c-0.14,0.05-0.23,0.19-0.21,0.34c0.02,0.14,0.16,0.25,0.31,0.24C125.59,77.56,125.92,77.35,126.03,76.96l1.74-0.08
	c0.62-0.02,0.64-0.14,0.05-0.35C126.94,76.22,126.34,76.36,126.03,76.96 M129.75,76.29c0.11,0.16,0.28,0.29,0.5,0.38
	c0.16,0.07,0.34-0.09,0.28-0.27c-0.15-0.47-0.49-0.72-1.01-0.73c-0.23-0.01-0.31,0.1-0.23,0.33
	C129.36,76.17,129.51,76.27,129.75,76.29 M110.7,72.83c-0.34,0.49-0.26,0.85,0.24,1.12c0.13,0.07,0.3,0.01,0.37-0.12
	c0.22-0.46,0.13-0.82-0.28-1.07C110.9,72.68,110.79,72.7,110.7,72.83 M126.18,70.31c-0.28,0.26-0.35,0.49-0.23,0.7
	c0.1,0.17,0.33,0.26,0.52,0.2c0.19-0.06,0.27-0.25,0.19-0.43l-0.2-0.42C126.4,70.25,126.26,70.23,126.18,70.31 M113.76,69.87
	c-0.52-0.35-1.1-0.36-1.76-0.04c-0.2,0.1-0.14,0.4,0.09,0.4c0.52,0.02,1.04,0.02,1.57-0.01C114.07,70.22,114.1,70.1,113.76,69.87
	 M112.22,67.9c-0.11,0.22-0.01,0.46,0.28,0.7c0.26,0.21,0.64,0.01,0.62-0.32l-0.03-0.55c-0.01-0.1-0.07-0.2-0.17-0.23
	c-0.32-0.12-0.52-0.09-0.58,0.08C112.28,67.75,112.23,67.87,112.22,67.9 M116.53,65.55l1.93-0.23c0.06-0.01,0.09-0.04,0.09-0.1
	c0-0.07,0-0.14,0.01-0.21c0.01-0.19-0.08-0.25-0.25-0.2l-1.82,0.52c-0.06,0.01-0.09,0.07-0.08,0.13
	C116.42,65.52,116.47,65.56,116.53,65.55 M117.36,61.55c-0.16,0.1-0.17,0.33-0.03,0.45l0.24,0.21c0.15,0.13,0.37,0.13,0.52-0.01
	c0.15-0.13,0.17-0.34,0.06-0.51C117.93,61.39,117.67,61.34,117.36,61.55 M117.63,54.88l0.28,0.14c0.4,0.22,0.5,0.13,0.3-0.28
	l-0.48-1c-0.12-0.24-0.25-0.25-0.38-0.01l-0.15,0.25c-0.13,0.22-0.31,0.3-0.56,0.25l-3.65-0.69c-0.13-0.02-0.18,0.03-0.16,0.16
	c0.17,0.95,3.22,1.13,4.06,1.04C117.15,54.7,117.4,54.75,117.63,54.88 M117.12,86.56h0.45c0.34,0,0.51,0.17,0.5,0.52l-0.53,18.57
	c-0.01,0.26-0.14,0.5-0.35,0.66c-1.89,1.38-12.68,0.7-15.51,0.67c-3.15-0.05-2.91-1.65-2.8-4.1c1.07-24.34,2.62-47.09,4.66-68.25
	c0.09-0.95,0.66-1.46,1.7-1.54c13.61-0.98,17.29-2.11,22.43,11.16c2.34,6.02,4.57,11.85,6.7,17.48c0.4,1.06,0.62,1.02,0.69-0.1
	c0.53-9,1.1-18.06,1.7-27.19c0.11-1.56,1.12-1.87,2.56-1.85c6.68,0.07,10.89,0.19,12.61,0.36c2.22,0.23,1.93,2.45,1.76,4.41
	c-1.18,13.1-1.83,26.24-1.96,39.4c-0.01,1.71-0.88,2.24-2.51,1.7c-0.11-0.04-0.21,0.08-0.15,0.19l0.14,0.22
	c0.03,0.05,0.07,0.08,0.13,0.09l1.75,0.32c0.26,0.05,0.44,0.27,0.45,0.53c0.04,7.96,0.04,15.92-0.03,23.87
	c-0.01,0.82-0.18,1.53-0.5,2.11c-0.13,0.22-0.32,0.35-0.58,0.36c-7.58,0.42-12.84,0.57-15.8,0.45c-0.8-0.04-1.39-0.57-1.78-1.6
	c-3.22-8.72-6.58-17.71-10.06-26.96c-0.08-0.22,0.15-0.43,0.36-0.32c0.23,0.11,0.62-0.24,0.4-0.53c-0.11-0.13-0.23-0.16-0.38-0.07
	l-0.34,0.2c-0.14,0.08-0.32,0.01-0.38-0.14l-3.04-8.01c-0.62-1.63-0.95-1.57-0.99,0.16L118.02,86c-0.01,0.33-0.12,0.38-0.35,0.14
	c-0.22-0.23-0.46-0.22-0.71,0.04C116.71,86.43,116.76,86.56,117.12,86.56"/>
<path d="M178.75,42.03c0-3.67-2.97-6.64-6.64-6.64c-3.67,0-6.64,2.97-6.64,6.64s2.97,6.64,6.64,6.64
	C175.78,48.67,178.75,45.7,178.75,42.03z M181.38,42.07c0,5.12-4.15,9.26-9.26,9.26c-5.11,0-9.26-4.15-9.26-9.26
	c0-5.11,4.15-9.26,9.26-9.26C177.24,32.8,181.38,36.95,181.38,42.07"/>
<path class="st2" d="M264.29,92.74c-0.04-0.28-0.36-0.41-0.58-0.23l-0.31,0.25c-0.23,0.19-0.17,0.56,0.1,0.66
	C264.11,93.67,264.37,93.44,264.29,92.74z M270.29,91.87c-0.19,0.51-0.28,1.05-0.26,1.61c0.01,0.38,0.1,0.4,0.29,0.07
	c0.32-0.56,0.48-1.08,0.48-1.55C270.8,91.69,270.39,91.59,270.29,91.87 M265.45,90.62c0.71,0.34,1.38,0.32,2-0.07
	c0.22-0.13,0.2-0.45-0.02-0.56c-0.72-0.36-1.39-0.36-2,0C265.18,90.14,265.2,90.5,265.45,90.62 M246.17,65.71l-0.27,0.27
	c-0.08,0.08-0.07,0.22,0.01,0.29l0.49,0.42c0.22,0.19,0.55,0.04,0.56-0.24l0.04-0.71c0.01-0.1-0.08-0.19-0.17-0.19
	c-0.07,0-0.15,0-0.23-0.01C246.43,65.54,246.29,65.6,246.17,65.71 M246.6,61.24l-0.36,0.05c-0.38,0.05-0.46,0.56-0.12,0.73
	l0.79,0.38c0.36,0.18,0.72-0.26,0.48-0.58l-0.27-0.36C247.01,61.3,246.81,61.21,246.6,61.24 M247.69,39.45
	c-0.72,2.23-0.98,4.51-0.79,6.83c0.19,2.3-0.63,4.45-0.18,6.87c0.07,0.35,0.57,0.36,0.65,0.01c1.08-4.7,0.87-10.61,1.11-15.48
	c0.01-0.29-0.12-0.43-0.41-0.43h-0.49c-0.32,0-0.41,0.14-0.28,0.43C247.68,38.48,247.81,39.07,247.69,39.45 M292.66,35.21
	l-1.06-0.05c-0.12-0.01-0.23,0.09-0.23,0.22l-0.03,0.56c-0.13,2.95,0.03,5.35,0.38,5.37l0.27,0.01c0.35,0.02,0.74-2.36,0.87-5.31
	l0.03-0.56C292.89,35.32,292.79,35.22,292.66,35.21 M257.07,106.3c-10.07-1.54-13.7-9.33-14.29-18.67
	c-1.07-16.9,1.4-34.41,3.33-51.2c0.23-1.98,0.14-3.46,2.74-3.49c6.07-0.07,10.25-0.05,12.53,0.03c1.96,0.07,2.48,1.57,2.33,3.35
	c-1.15,13.73-2.2,27.48-3.16,41.23c-0.25,3.46,0.12,6.38,1.1,8.75c1.34,3.28,7.07,2.68,9.52,1.21c3.76-2.25,4.16-8.63,4.42-12.82
	c0.8-13.21,1.53-26.42,2.18-39.64c0.07-1.39,0.84-2.02,2.18-2.05c6.79-0.16,11.17-0.17,13.14-0.02c2.32,0.16,2.17,2.36,2.09,4.41
	c-0.51,11.89-0.86,23.77-1.06,35.67C293.72,96.53,281.58,110.05,257.07,106.3"/>
<path class="st4" d="M350.85,41.54c0.74,0.02,0.86,0.43,0.7,1.07c-0.43,1.7-0.47,3.44-0.1,5.2c0.05,0.28-0.05,0.43-0.32,0.46
	l-0.29,0.04c-0.3,0.05-0.45,0.22-0.45,0.52c-0.01,1.4,0.1,3.65,0.35,6.74c0.28,3.54,0.27,10.15-0.02,19.81
	c-0.01,0.2-0.15,0.38-0.35,0.42c-0.52,0.11-0.78,0.46-0.77,1.04c0.08,4.21,0.06,7.71-0.05,10.5c-0.01,0.28,0.04,0.53,0.17,0.78
	c0.59,1.21,0.44,2.32-0.44,3.35c-0.16,0.17-0.35,0.26-0.58,0.27c-9.77,0.19-19.04-0.05-27.82-0.71c-1.43-0.11-2.13-0.97-2.1-2.56
	c0.2-9.73-0.2-18.92,0.13-29.11c0.18-5.3,0.35-10.5-0.54-15.76c-0.21-1.25,0.06-2.34,0.8-3.29c0.14-0.19,0.22-0.4,0.21-0.63
	c-0.06-3.48,1.58-5.47,5.15-5.78c8.04-0.69,16.02-0.25,23.95,1.32c0.14,0.03,0.26,0.12,0.34,0.25l1.49,2.65
	c0.13,0.23,0.19,0.47,0.2,0.74l0.01,2.3C350.49,41.41,350.61,41.53,350.85,41.54z"/>
<path class="st2" d="M82.05,34.63l2.75-0.62c0.14-0.03,0.3,0.03,0.38,0.15c0.07,0.12,0.04,0.26-0.08,0.33
	c-0.85,0.52-1.2,1.23-1.06,2.13c0.04,0.28-0.02,0.52-0.19,0.76l-1.25,1.69c-0.13,0.17-0.2,0.37-0.21,0.59
	c-0.07,1.4-0.75,2.4-2.02,3.01c-0.28,0.13-0.33,0.33-0.16,0.59l0.53,0.8c0.09,0.13,0.05,0.31-0.07,0.4l-0.51,0.38
	c-0.21,0.16-0.51,0.06-0.59-0.19c-0.75-2.29,0.17-6.31,0.49-8.16c0.04-0.25,0.01-0.5-0.08-0.75c-0.19-0.49-0.24-0.97-0.13-1.44
	c0.07-0.35,0.48-0.51,0.77-0.31l0.72,0.49C81.53,34.65,81.78,34.69,82.05,34.63z"/>
<path class="st2" d="M88.68,34.15c0.16-0.01,0.2,0.21,0.06,0.27l-2,0.86c-0.2,0.09-0.37,0.04-0.48-0.16l-0.2-0.35
	c-0.14-0.22,0.01-0.5,0.27-0.52L88.68,34.15z"/>
<path d="M292.66,35.21c0.13,0.01,0.23,0.11,0.22,0.23l-0.03,0.56c-0.13,2.95-0.52,5.33-0.87,5.31l-0.27-0.01
	c-0.35-0.02-0.51-2.42-0.38-5.37l0.03-0.56c0.01-0.13,0.11-0.22,0.23-0.22L292.66,35.21z"/>
<circle class="st2" cx="172.11" cy="42.03" r="6.64"/>
<path class="st3" d="M352.69,44.82c-0.19-1.75,0.05-3.43,0.7-5.03c0.48-0.71,0.77-1.66,0.87-2.83c0.02-0.28,0.13-0.31,0.32-0.1
	c0.45,0.48,0.04,2.62-0.12,3.21c-0.61,2.39-0.36,4.12,0.02,6.38c0.23,1.43-0.38,2.57,0.34,4.09c0.09,0.19,0.05,0.33-0.13,0.43
	l-0.59,0.34c-0.34,0.19-0.75-0.1-0.67-0.48C353.82,48.78,353.58,46.78,352.69,44.82z"/>
<path d="M247.69,39.45c0.12-0.38-0.01-0.97-0.38-1.77c-0.13-0.29-0.04-0.43,0.28-0.43h0.49c0.29,0,0.43,0.14,0.41,0.43
	c-0.24,4.88-0.03,10.79-1.11,15.48c-0.08,0.35-0.58,0.34-0.65-0.01c-0.45-2.42,0.37-4.57,0.18-6.87
	C246.71,43.96,246.97,41.68,247.69,39.45z"/>
<path class="st0" d="M316.24,48.27c0,0.11-0.1,0.2-0.21,0.2l-0.13,0c-0.11,0-0.2-0.1-0.2-0.21l0.23-6.64c0-0.11,0.1-0.2,0.21-0.2
	l0.13,0c0.11,0,0.2,0.1,0.2,0.21L316.24,48.27z"/>
<path class="st4" d="M361.92,45.11c0.03-0.1,0.14-0.16,0.24-0.14c0.1,0.02,0.17,0.12,0.16,0.23c-0.14,1.27-0.21,2.52-0.21,3.76
	c0,0.2-0.27,0.25-0.35,0.07C361.37,48.02,361.42,46.72,361.92,45.11z"/>
<path class="st2" d="M78.18,71.71c0.39-0.62,1.02-8.4,0.86-9.86c-0.14-1.3-0.12-2.58,0.06-3.82c0.19-1.31,0.94-6.38,0.3-7.32
	c-0.12-0.17-0.17-0.37-0.17-0.59l0.17-3.83c0.01-0.24,0.21-0.43,0.46-0.43l1.49,0.02c0.36,0.01,0.51,0.46,0.22,0.68l-0.84,0.61
	c-0.22,0.16-0.29,0.38-0.2,0.64c0.73,2.14,0.73,4.29-0.01,6.43c-0.31,0.9-0.25,1.3,0,2.15c0.07,0.24,0.05,0.5-0.04,0.74
	c-0.63,1.49-0.71,3-0.22,4.53c0.07,0.25,0.07,0.5,0.01,0.74c-1.29,4.43-0.84,9.19-1.9,14.3c-0.05,0.26-0.04,0.52,0.02,0.77
	c0.26,0.92,0.16,1.81-0.32,2.65c-0.25,0.43-0.36,0.4-0.35-0.1l0.24-7.63C77.97,72.15,78.05,71.92,78.18,71.71z"/>
<path class="st3" d="M363.11,98.53c-1.15-1.99-1.2-3.94-0.16-5.86c0.08-0.13,0.04-0.22-0.11-0.25c-0.04-0.01-0.11-0.05-0.21-0.12
	c-0.56-0.4-1.22,0.5-1.11,1.52c0.13,1.17,0.49,5.02,1.9,5.26c0.11,0.02,0.15-0.03,0.1-0.13c-0.05-0.1-0.1-0.16-0.19-0.21
	C363.24,98.7,363.16,98.63,363.11,98.53z M365.1,87.35c0.12,3.82,0.4,6.06-0.7,11.12c-0.03,0.14-0.11,0.24-0.24,0.31
	c-0.17,0.09-0.29,0.24-0.32,0.44c-0.01,0.04,0.01,0.07,0.05,0.07c2.05,0.05,2.55-11.69,1.48-12.12
	C365.19,87.1,365.1,87.16,365.1,87.35 M360.51,67.64c0.74-5.05,1.38-10.12,1.9-15.21c0.02-0.12,0.08-0.19,0.2-0.19
	c0.07-0.01,0.14-0.01,0.2-0.01c0.04,0.01,0.07,0.04,0.07,0.07c0.11,1.52-0.01,3.5-0.39,5.9c-1.24,7.87-0.43,16.27,0.63,24.17
	c0.23,1.76,0.23,3-0.02,3.71c-1.15,3.33-1.67,3.23-1.52-0.29c0.06-1.54-0.08-3.34-0.42-5.41c-0.01-0.05-0.06-0.1-0.12-0.09
	c-0.05,0.01-0.1,0.05-0.09,0.11c0.19,2.32-0.22,5.64,0.5,7.7c0.2,0.58,0.41,1.17,0.62,1.76c0.04,0.13,0.1,0.13,0.15,0
	c2.09-5.29,0.71-8.73,0.77-14.01c0.04-3.11-0.8-6.04-0.55-9.01c0.22-2.59,0.45-5.17,0.67-7.75c0.01-0.14,0.1-0.22,0.24-0.22
	l0.23,0.01c0.13,0,0.2,0.07,0.2,0.19c0.01,2.39,0.14,4.2-0.44,6.74c-0.74,3.22,0.23,6.53,0.42,8.91c0.22,2.68,0.51,5.34,0.89,8
	c0.32,2.17-0.45,4.57-0.61,6.1c-0.24,2.29-0.52,4.57-0.83,6.86c-0.01,0.07,0.03,0.13,0.1,0.13c0.06,0.01,0.13-0.02,0.15-0.08
	c0.72-2.14,0.54-8.04,1.52-9.11c0.15-0.17,0.23-0.38,0.22-0.61c-0.24-6.29-1.04-12.37-1.5-18.61c-0.01-0.18,0.12-0.35,0.3-0.37
	c0.2-0.03,0.32,0.03,0.34,0.19c1.52,13.71,2.6,24.27,3.23,31.68c0.07,0.76-0.19,1.37-0.76,1.86c-0.16,0.13-0.24,0.1-0.23-0.11
	l0.13-5.21c0.01-0.29-0.13-0.4-0.41-0.34c-0.35,0.08-0.41,0.23-0.18,0.46c0.14,1.76,0.08,3.53-0.17,5.28
	c-0.04,0.23-0.17,0.36-0.4,0.38l-4.39,0.43c-0.28,0.02-0.42-0.1-0.41-0.38c0.06-4.02-0.08-7.5-0.56-11.82
	c-0.64-5.69-0.83-11.4-0.55-17.12c0.13-2.64-0.53-5.38-0.3-8.21c0.01-0.12,0.08-0.2,0.19-0.24l0.25-0.08
	c0.24-0.08,0.32-0.24,0.23-0.48c-0.93-2.72-0.11-4.93-0.43-7.52c-0.14-1.14-0.23-2.29-0.23-3.45c-0.01-0.13,0.05-0.22,0.17-0.27
	c0.07-0.02,0.14-0.05,0.22-0.07c0.08-0.03,0.16,0.03,0.17,0.11l0.32,1.99c0.04,0.25,0.39,0.26,0.44,0.01
	c0.17-0.78-0.23-4.16,0.52-4.48c0.28-0.12,0.42-0.03,0.41,0.28c-0.08,5.96-1.36,11.75-1.35,17.66c0,0.07,0.05,0.13,0.12,0.13
	C360.45,67.76,360.51,67.71,360.51,67.64"/>
<path class="st2" d="M58.93,50.25c0.21-0.23,0.58-0.07,0.57,0.24c-0.03,0.54-0.32,0.82-0.89,0.83c-0.25,0.01-0.39-0.3-0.22-0.49
	L58.93,50.25z"/>
<path class="st4" d="M312.67,52.43c0.16-0.04,0.4,0.02,0.75,0.19c0.17,10.6,0.13,18.65-0.14,24.18c-0.27,5.78-0.36,10.39-0.26,13.85
	c0.01,0.14,0.08,0.22,0.23,0.23c0.07,0.01,0.14-0.01,0.21-0.04c0.04-0.01,0.05-0.04,0.05-0.08c0.19-4.28-0.26-8.45,0.75-12.67
	c0.22,0.02,0.33,0.04,0.34,0.07c-0.43,4.51-0.07,8.93-0.68,13.46c-0.52,3.77,0.42,6.67-0.66,11.08c-0.23-0.37-0.55-0.49-0.98-0.39
	C311.98,85.65,312.42,69.09,312.67,52.43z"/>
<path class="st0" d="M353.9,56.74h-0.38c-0.15,0-0.23-0.08-0.25-0.23c-0.15-1.37,0.16-2.58,0.91-3.64c0.43-0.6,1.37-0.26,1.31,0.48
	l-0.18,2.19c-0.02,0.2-0.28,0.25-0.37,0.07c-0.23-0.44-0.2-0.84,0.1-1.19c0.17-0.2,0.02-0.5-0.24-0.5h-0.35
	c-0.21,0-0.34,0.1-0.38,0.31c-0.25,1.25,0.19,2.11,1.33,2.59c0.22,0.09,0.28,0.24,0.18,0.45c-0.63,1.36,0.17,5.09-0.25,7.12
	c-0.04,0.2-0.16,0.27-0.35,0.22c-0.07-0.02-0.13-0.04-0.19-0.06c-0.06-0.02-0.1-0.07-0.09-0.14c0.35-2.44,0.27-4.85-0.26-7.23
	C354.39,56.93,354.16,56.74,353.9,56.74z"/>
<path class="st3" d="M116.88,54.73c-0.84,0.1-3.88-0.08-4.06-1.04c-0.02-0.13,0.03-0.18,0.16-0.16l3.65,0.69
	c0.25,0.05,0.44-0.04,0.56-0.25l0.15-0.25c0.14-0.23,0.26-0.23,0.38,0.01l0.48,1c0.2,0.41,0.1,0.5-0.3,0.28l-0.28-0.14
	C117.4,54.75,117.15,54.7,116.88,54.73z"/>
<path class="st3" d="M314.25,54.49l0.66-0.01c0.21,5.7-0.28,11.65,0.49,17.28c0.23,1.7,0.79,5.08-0.8,6.41
	c-0.01-0.03-0.12-0.05-0.34-0.07L314.25,54.49z"/>
<path class="st3" d="M316.5,70.33c0,0.13-0.11,0.22-0.23,0.22l-0.26,0c-0.13,0-0.22-0.1-0.22-0.23l0.07-10.72
	c0-0.13,0.11-0.22,0.23-0.22l0.26,0c0.13,0,0.22,0.1,0.22,0.23L316.5,70.33z"/>
<path d="M178.74,69.77c0-3.66-2.96-6.62-6.62-6.62s-6.62,2.96-6.62,6.62c0,3.66,2.96,6.62,6.62,6.62S178.74,73.43,178.74,69.77z
	 M181.41,69.78c0,5.13-4.16,9.29-9.29,9.29s-9.29-4.15-9.29-9.29s4.16-9.29,9.29-9.29S181.41,64.65,181.41,69.78"/>
<path class="st2" d="M221.49,67.26c0.88,1.11,0.95,0.98,0.19-0.39c0-0.01-0.01-0.01-0.02-0.01l-0.15,0.15
	C221.42,67.09,221.42,67.17,221.49,67.26z M192.6,80.08c-2.8,0.29-2.88-1.27-2.79-3.52c0.14-3.47,0.34-6.96,0.59-10.47
	c0.22-3.05,1.58-2.57,3.92-2.71c13.04-0.83,26.08-1.63,39.12-2.4c1.74-0.1,8.35-1.09,6.29,2.92c-0.1,0.2-0.14,0.4-0.12,0.63
	c0.28,3.43,0.14,6.85-0.43,10.27c-0.11,0.68-0.68,1.2-1.37,1.26C222.72,77.23,207.66,78.57,192.6,80.08"/>
<path d="M247.13,61.46l0.27,0.36c0.24,0.32-0.12,0.76-0.48,0.58l-0.79-0.38c-0.35-0.16-0.26-0.67,0.12-0.73l0.36-0.05
	C246.81,61.21,247.01,61.3,247.13,61.46z"/>
<path class="st3" d="M354.87,80.44l-0.5-1.94l-0.32-3.17c-0.02-0.26-0.17-0.4-0.43-0.4h-0.63c-0.23,0-0.36-0.11-0.37-0.35
	c-0.21-5.21,0.47-9.01,0.13-12.91c-0.02-0.29,0.11-0.43,0.39-0.43h0.33c0.26,0,0.39,0.13,0.38,0.39c-0.11,2.28,0.1,4.52,0.62,6.73
	C355.38,72.17,354.63,76.45,354.87,80.44z"/>
<path class="st3" d="M117.36,61.55c0.31-0.21,0.58-0.16,0.79,0.14c0.11,0.16,0.09,0.38-0.06,0.51c-0.15,0.14-0.37,0.14-0.52,0.01
	L117.33,62C117.18,61.88,117.2,61.65,117.36,61.55z"/>
<ellipse transform="matrix(0.1602 -0.9871 0.9871 0.1602 75.6753 228.486)" class="st2" cx="172.11" cy="69.77" rx="6.62" ry="6.62"/>
<path class="st1" d="M116.53,65.55c-0.06,0.01-0.11-0.03-0.13-0.09c-0.01-0.06,0.02-0.12,0.08-0.13l1.82-0.52
	c0.17-0.05,0.26,0.01,0.25,0.2c-0.01,0.07-0.01,0.14-0.01,0.21c0,0.06-0.03,0.1-0.09,0.1L116.53,65.55z"/>
<path d="M246.59,65.55c0.08,0.01,0.16,0.01,0.23,0.01c0.1,0,0.18,0.08,0.17,0.19l-0.04,0.71c-0.01,0.29-0.35,0.43-0.56,0.24
	l-0.49-0.42c-0.08-0.07-0.09-0.21-0.01-0.29l0.27-0.27C246.29,65.6,246.43,65.54,246.59,65.55z"/>
<path d="M221.5,67.01l0.15-0.15c0.01-0.01,0.02,0,0.02,0.01c0.76,1.37,0.69,1.5-0.19,0.39C221.42,67.17,221.42,67.09,221.5,67.01z"
	/>
<path class="st2" d="M91.23,67.92c-0.22-0.14-0.13-0.49,0.14-0.49h0.54c0.2,0,0.36,0.17,0.37,0.37
	C92.28,68.33,91.92,68.37,91.23,67.92z"/>
<path class="st2" d="M112.34,67.59c0.07-0.17,0.26-0.2,0.58-0.08c0.1,0.04,0.16,0.13,0.17,0.23l0.03,0.55
	c0.02,0.33-0.37,0.53-0.62,0.32c-0.29-0.24-0.39-0.47-0.28-0.7C112.23,67.87,112.28,67.75,112.34,67.59z"/>
<path d="M40.66,70c-0.17,0.15-0.52,0.05-0.79-0.24c-0.26-0.29-0.33-0.65-0.17-0.8c0.17-0.15,0.52-0.05,0.79,0.24
	C40.75,69.49,40.83,69.85,40.66,70z"/>
<path class="st1" d="M113.66,70.23c-0.53,0.02-1.05,0.02-1.57,0.01c-0.22-0.01-0.29-0.31-0.09-0.4c0.66-0.32,1.24-0.32,1.76,0.04
	C114.1,70.1,114.07,70.22,113.66,70.23z"/>
<path class="st2" d="M126.18,70.31c0.08-0.08,0.22-0.06,0.28,0.05l0.2,0.42c0.08,0.18,0,0.37-0.19,0.43
	c-0.19,0.06-0.42-0.03-0.52-0.2C125.82,70.81,125.9,70.57,126.18,70.31z"/>
<path class="st2" d="M88.59,70.65c0.49-0.38,0.9-0.38,1.25,0.03c0.34,0.38,0.25,0.56-0.26,0.52c-0.28-0.02-0.53-0.02-0.78-0.01
	C88.5,71.2,88.36,70.83,88.59,70.65z"/>
<path class="st3" d="M358.07,73.19c0.22-2.21,0.38-2.2,0.49,0.02c0.09,1.88,0.14,4.14,0.17,6.78c0.01,1.82,0.76,3.76,0.38,6.01
	c-0.11,0.64,0.04,1.3,0.43,1.99c0.11,0.18,0.02,0.41-0.16,0.48l-0.76,0.32c-0.2,0.08-0.33,0.02-0.37-0.19
	c-0.65-3.22-0.02-6.32-0.25-9.36C357.85,77.14,357.87,75.13,358.07,73.19z"/>
<path class="st3" d="M11.76,72.61c0.21,0.33,0.22,0.68,0.02,1.05c-0.2,0.38-0.3,0.35-0.3-0.07v-0.89
	C11.49,72.34,11.58,72.31,11.76,72.61z"/>
<path class="st3" d="M91.18,73.08l-0.03,0.4c-0.02,0.16-0.19,0.26-0.34,0.19c-0.38-0.2-0.49-0.45-0.32-0.77
	C90.67,72.54,91.21,72.68,91.18,73.08z"/>
<path class="st1" d="M110.7,72.83c0.08-0.13,0.2-0.15,0.33-0.07c0.4,0.25,0.49,0.61,0.28,1.07c-0.07,0.14-0.23,0.2-0.37,0.12
	C110.44,73.69,110.37,73.32,110.7,72.83z"/>
<path d="M47.1,73.11c0.2,0.01,0.32,0.24,0.19,0.4c-0.38,0.55-0.91,0.66-1.58,0.34c-0.41-0.2-0.26-0.82,0.2-0.79L47.1,73.11z"/>
<path d="M41.39,75.38c-0.42-0.01-0.72-0.16-0.89-0.44c-0.13-0.21-0.04-0.49,0.19-0.58l0.62-0.26c0.25-0.11,0.53,0.08,0.53,0.36
	l0.01,0.47C41.85,75.24,41.7,75.39,41.39,75.38z"/>
<path class="st2" d="M91.89,76.26c-0.2,0.05-0.43-0.11-0.49-0.36c-0.07-0.26,0.04-0.51,0.24-0.56c0.2-0.05,0.43,0.11,0.49,0.36
	C92.19,75.96,92.09,76.21,91.89,76.26z"/>
<path d="M129.75,76.29c-0.24-0.02-0.39-0.12-0.46-0.29c-0.08-0.23,0-0.34,0.23-0.33c0.52,0.01,0.85,0.25,1.01,0.73
	c0.05,0.18-0.12,0.34-0.28,0.27C130.03,76.57,129.87,76.45,129.75,76.29z"/>
<path class="st1" d="M126.03,76.96c0.31-0.6,0.91-0.74,1.79-0.43c0.58,0.21,0.57,0.33-0.05,0.35L126.03,76.96z"/>
<path class="st3" d="M351.36,91.47c0.17-1.12,0.17-2.68,0.02-4.68c-0.12-1.48,0.07-3.55,0.55-6.2c0.98-0.03,0.6-3.08,0.69-3.81
	c0.04-0.38,0.2-0.43,0.46-0.15c0.48,0.51-0.29,5.56-0.42,7.18c-0.23,2.8,0.62,5.81,0.5,8.84c-0.01,0.13-0.11,0.25-0.25,0.26
	c-0.14,0.01-0.26-0.08-0.29-0.22l-0.23-1.12c-0.05-0.25-0.2-0.36-0.46-0.33C351.75,91.27,351.57,91.34,351.36,91.47z"/>
<path class="st1" d="M110.18,77.29c-0.2,0.31-0.46,0.46-0.79,0.44c-0.3-0.02-0.4-0.4-0.16-0.56l0.5-0.32
	C110.02,76.65,110.37,76.99,110.18,77.29z"/>
<path class="st2" d="M126.03,76.96c-0.11,0.39-0.44,0.6-0.98,0.63c-0.15,0.01-0.29-0.1-0.31-0.24c-0.02-0.15,0.07-0.29,0.21-0.34
	C125.19,76.95,125.55,76.93,126.03,76.96z"/>
<path class="st1" d="M111.46,77.5c0.1-0.19,0.37-0.49,0.58-0.28c0.16,0.16,0.13,0.3-0.06,0.41c-0.52,0.29-0.5,0.62,0.04,0.97
	c0.22,0.14,0.18,0.46-0.06,0.56c-0.56,0.22-1.02,0.16-1.39-0.18c-0.24-0.22-0.29-0.47-0.14-0.76c0.13-0.26,0.34-0.4,0.62-0.44
	C111.24,77.76,111.38,77.67,111.46,77.5z"/>
<path d="M11.22,79.07c0.14,0.58,0.15,1.16,0.05,1.77c-0.1,0.52-0.21,0.52-0.35,0.01c-0.31-1.12-0.29-2.24,0.07-3.35
	c0.11-0.34,0.21-0.33,0.29,0.02c0.07,0.31,0.07,0.59-0.02,0.85C11.18,78.6,11.17,78.83,11.22,79.07z"/>
<path class="st2" d="M90.6,78.01c0.01-0.08,0.01-0.17-0.03-0.29c-0.07-0.26,0.08-0.51,0.35-0.56c0.27-0.05,0.58,0.11,0.7,0.37
	c0.68,1.46-1.45,2.29-2.5,2.21c-0.28-0.02-0.31-0.12-0.1-0.29l1.47-1.25C90.56,78.14,90.6,78.08,90.6,78.01z"/>
<path class="st0" d="M354.36,78.49l0.5,1.94c-0.32,3.78-0.36,7.59-0.13,11.44c0.01,0.16-0.03,0.74-0.12,1.73
	c-0.04,0.45-0.05,1.04-0.04,1.77c0.05,2.23,0.69,11.58-1.19,12.64c-0.63,0.35-1.4-0.11-1.39-0.83c0.1-4.21-0.26-8.38,0.5-12.58
	c0.05-0.29,0.2-0.35,0.44-0.18c0.29,0.2-0.31,5.07-0.17,6.11c0.29,2.21,0.13,4.44-0.48,6.69c-0.06,0.23,0.09,0.46,0.32,0.51
	c1.68,0.32,1.19-4.48,1.08-5.22c-0.39-2.5-0.28-5.2,0.32-8.09c0.16-0.79,0.19-1.67,0.07-2.63
	C353.54,87.31,353.73,82.97,354.36,78.49z"/>
<path class="st3" d="M315.81,87.76c0.06-2.73-0.58-5.6,0.06-8.7c0.07-0.33,0.17-0.34,0.3-0.03c0.74,1.82,0.17,3.95,0.22,5.29
	c0.12,3.17,0.71,7.02-0.55,10.01c-0.06,0.14-0.2,0.21-0.35,0.17c-0.14-0.05-0.23-0.18-0.21-0.32
	C315.58,92.08,315.76,89.95,315.81,87.76z"/>
<path d="M40.76,79.65c0.06,0.2-0.1,0.43-0.36,0.5c-0.25,0.07-0.51-0.04-0.57-0.24c-0.06-0.2,0.1-0.43,0.36-0.5
	C40.44,79.34,40.7,79.45,40.76,79.65z"/>
<path d="M43.36,80.63c-0.31-0.22-0.28-0.4,0.07-0.53l0.81-0.32c0.42-0.17,0.79,0.34,0.5,0.69C44.34,80.95,43.88,81,43.36,80.63z"/>
<path class="st3" d="M112.67,79.99c0.04-0.03,0.1-0.04,0.14-0.01l0.49,0.22c0.15,0.07,0.23,0.24,0.18,0.4
	c-0.05,0.16-0.2,0.26-0.36,0.24l-0.64-0.08c-0.25-0.03-0.31-0.15-0.18-0.37C112.39,80.24,112.51,80.11,112.67,79.99z"/>
<path class="st2" d="M90.94,81.35c-0.14,0.02-0.24-0.04-0.32-0.2c-0.09-0.19-0.04-0.27,0.17-0.25c0.56,0.06,1.06,0.28,1.48,0.64
	c0.33,0.29,0.28,0.45-0.16,0.49C91.59,82.09,91.2,81.86,90.94,81.35z"/>
<path class="st2" d="M77.73,81.48c0.07-0.15,0.3-0.11,0.32,0.05c0.07,0.64-0.01,1.25-0.25,1.85c-0.14,0.36-0.24,0.35-0.29-0.04
	C77.4,82.69,77.47,82.07,77.73,81.48z"/>
<path class="st1" d="M113.19,81.75c0.39,0.17,0.55,0.46,0.49,0.86c-0.02,0.17-0.17,0.29-0.34,0.29c-0.17,0-0.32-0.12-0.34-0.29
	l-0.09-0.65C112.89,81.8,113.04,81.68,113.19,81.75z"/>
<path d="M43.2,83.29c-0.47,0.12-0.84-0.01-1.1-0.39c-0.17-0.25-0.12-0.41,0.17-0.5c0.46-0.14,0.83-0.05,1.12,0.28
	C43.67,82.99,43.6,83.2,43.2,83.29z"/>
<path d="M10.44,86.2c0.27-0.73-0.02-4.2,1.12-3.49c0.15,0.1,0.22,0.26,0.2,0.44c-0.95,6.76-1.12,13.52-0.49,20.28
	c0.09,0.97-0.15,1.6-0.72,1.9c-0.37,0.19-0.54,0.08-0.52-0.34c0.1-1.69,0.18-3.38,0.26-5.05c0.18-3.86-0.74-7.77-0.84-11.71
	C9.43,87.19,10.15,86.98,10.44,86.2z"/>
<path d="M46.02,84.5c-0.4,0.57-1.29,0.2-1.16-0.48c0.12-0.65,0.43-1.15,0.92-1.51c0.29-0.22,0.48-0.14,0.56,0.21
	C46.47,83.41,46.37,84.01,46.02,84.5z"/>
<path class="st2" d="M90.59,84.21c-0.14,0.11-0.29,0.16-0.44,0.13c-0.3-0.03-0.52-0.28-0.55-0.57c-0.02-0.3,0.19-0.57,0.48-0.63
	c0.28-0.07,0.5,0.08,0.66,0.43C90.85,83.83,90.8,84.04,90.59,84.21z"/>
<path class="st2" d="M88.38,85.23l-1.07-0.91c-0.37-0.31-0.06-0.9,0.4-0.78c0.92,0.24,1.27,0.76,1.04,1.57
	C88.71,85.27,88.5,85.34,88.38,85.23z"/>
<path d="M132.47,84.5c-0.48,1.42,1.22,1.25,1.21,2.26c0,0.23-0.16,0.41-0.38,0.44c-0.23,0.04-0.43-0.1-0.5-0.31
	c-0.33-1.02-0.92-1.88-1.76-2.59c-0.19-0.17-0.11-0.49,0.14-0.53c0.41-0.07,0.79,0.02,1.12,0.23
	C132.48,84.13,132.54,84.3,132.47,84.5z"/>
<path class="st3" d="M133.97,85.39c-0.81-0.31-0.76-0.46,0.15-0.45c0.37,0,0.78,0.21,1.25,0.64c0.43,0.4,0.38,0.49-0.17,0.28
	L133.97,85.39z"/>
<path class="st2" d="M90.75,86.14c0.1-0.16,0.32-0.14,0.65,0.07c0.28,0.17,0.19,0.6-0.13,0.66l-0.38,0.08
	c-0.13,0.03-0.25-0.03-0.32-0.14C90.33,86.38,90.39,86.16,90.75,86.14z"/>
<path d="M364.41,98.47c1.1-5.05,0.82-7.29,0.7-11.12c-0.01-0.2,0.08-0.25,0.27-0.19c1.07,0.43,0.57,12.17-1.48,12.12
	c-0.05,0-0.06-0.02-0.05-0.07c0.04-0.2,0.15-0.35,0.32-0.44C364.29,98.71,364.38,98.61,364.41,98.47z"/>
<path class="st1" d="M87.87,88.4c0.19,0.04,0.2,0.1,0.02,0.18c-0.42,0.2-0.89,0.33-1.42,0.38c-0.13,0.01-0.25-0.07-0.28-0.2
	c-0.03-0.12,0.04-0.24,0.16-0.28C86.85,88.33,87.36,88.3,87.87,88.4z"/>
<path d="M178.77,97.52c0-3.67-2.98-6.65-6.65-6.65s-6.65,2.98-6.65,6.65s2.98,6.65,6.65,6.65S178.77,101.2,178.77,97.52z
	 M181.41,97.52c0,5.13-4.16,9.29-9.29,9.29s-9.29-4.15-9.29-9.29s4.16-9.29,9.29-9.29S181.41,92.39,181.41,97.52"/>
<path class="st2" d="M129.19,89.32c-0.04-0.25,0.01-0.47,0.16-0.68c0.17-0.26,0.26-0.23,0.26,0.08v1.22c0,0.22-0.28,0.31-0.4,0.13
	C128.99,89.77,128.98,89.51,129.19,89.32z"/>
<path class="st2" d="M133.59,89.32c-0.23-0.27-0.1-0.14-0.17-0.42c-0.01-0.04-0.01-0.04,0.02-0.01
	C134.28,90.04,134.33,90.18,133.59,89.32z"/>
<path class="st2" d="M90.82,90.15c-0.11,0.11-0.17,0.23-0.19,0.32l-1.76,1.24c-0.16,0.11-0.38,0.04-0.45-0.14
	c-0.03-0.07-0.06-0.14-0.09-0.22c-0.08-0.18-0.04-0.33,0.12-0.44l1.85-1.27c0.14-0.1,0.22-0.06,0.25,0.1
	C90.59,89.97,90.68,90.11,90.82,90.15z"/>
<path d="M265.45,90.62c-0.26-0.12-0.27-0.48-0.02-0.63c0.61-0.36,1.28-0.36,2,0c0.22,0.11,0.24,0.43,0.02,0.56
	C266.83,90.94,266.16,90.96,265.45,90.62z"/>
<path d="M58.69,91.1c-0.29,0-0.39-0.2-0.29-0.58c0.1-0.38,0.59-0.49,0.85-0.18l0.22,0.26c0.13,0.16,0.09,0.39-0.07,0.51
	C59.11,91.3,58.88,91.3,58.69,91.1z"/>
<path class="st4" d="M90.82,90.15c0.89-0.05,1.61,0.37,2.12,1.26c0.1,0.16,0.05,0.28-0.13,0.34c-0.06,0.02-0.13,0.04-0.19,0.07
	c-0.08,0.03-0.14,0-0.17-0.08c-0.35-1-0.96-1.42-1.83-1.27C90.65,90.37,90.72,90.26,90.82,90.15z"/>
<path d="M135.9,91.57c0.03,0.45-0.02,0.88-0.16,1.28c-0.07,0.2-0.34,0.19-0.4-0.01c-0.32-1.01-0.16-1.85,0.5-2.51
	c0.32-0.32,0.55-0.27,0.68,0.17c0.15,0.47,0.51,0.76,1.08,0.85c0.31,0.05,0.35,0.47,0.06,0.58c-0.53,0.2-0.9,0.1-1.12-0.31
	C136.36,91.3,135.88,91.26,135.9,91.57z"/>
<circle class="st2" cx="172.11" cy="97.52" r="6.65"/>
<path d="M113.04,92.77c0.19,0.11,0.28,0.26,0.26,0.43c-0.02,0.2-0.25,0.29-0.4,0.15c-0.46-0.44-0.83-0.95-1.13-1.51
	c-0.06-0.11-0.05-0.25,0.04-0.35c0.08-0.09,0.2-0.1,0.28-0.02c0.25,0.23,0.45,0.53,0.59,0.89
	C112.75,92.53,112.87,92.67,113.04,92.77z"/>
<path class="st0" d="M270.29,91.87c0.1-0.28,0.51-0.17,0.51,0.13c0,0.47-0.16,0.99-0.48,1.55c-0.19,0.34-0.28,0.31-0.29-0.07
	C270.01,92.92,270.1,92.38,270.29,91.87z"/>
<path class="st2" d="M90.57,92.79c-0.19,0-0.31-0.1-0.35-0.29c-0.05-0.21,0.14-0.4,0.35-0.33l0.49,0.15
	c0.15,0.04,0.22,0.22,0.16,0.36C91.04,93.04,90.83,93.07,90.57,92.79z"/>
<path class="st1" d="M345.81,96.4c1.59,0.04,2.92-0.55,3.98-1.77c0.05-0.06,0.05-0.1-0.04-0.13c-0.07-0.02-0.13-0.05-0.19-0.06
	c-0.28-0.08-0.52,0-0.71,0.22c-0.89,1.03-2.02,1.45-3.4,1.25c-0.11-0.01-0.22,0.07-0.22,0.19c0,0.07,0,0.14-0.01,0.22
	C345.22,96.35,345.48,96.4,345.81,96.4z M319.8,92.38l-0.73,1.44c-0.11,0.23-0.13,0.5-0.07,0.74c0.21,0.71,0.69,1.16,1.43,1.34
	c0.2,0.04,0.34-0.2,0.19-0.35l-0.95-0.89c-0.16-0.16-0.22-0.4-0.14-0.62c0.31-0.79,0.88-1.34,1.71-1.67l18.09,0.65
	c-3.71,0.61-7.45,0.76-11.22,0.47c-0.17-0.02-0.39,0.1-0.45,0.24c-0.1,0.22-0.04,0.34,0.21,0.35l5.23,0.24
	c0.26,0.01,0.5,0.07,0.73,0.19l1.3,0.62c0.25,0.12,0.46,0.08,0.64-0.13c0.39-0.47,0.77-0.47,1.15-0.02c0.14,0.17,0.39,0.2,0.57,0.08
	c1.4-0.94,2.88-1.12,4.42-0.54c0.23,0.08,0.45,0.1,0.68,0.04c1.96-0.44,3.93-0.65,5.92-0.61c0.13,0.01,0.22-0.06,0.26-0.2
	c0.01-0.07,0.01-0.14-0.01-0.21c1.8-0.31,1.68,2.24,1.08,3.17c-0.13,0.19-0.35,0.32-0.58,0.32l-6.97,0.22
	c1.02-0.83,1.7-1.48,2.02-1.95c0.07-0.09,0.03-0.19-0.08-0.23c-0.11-0.04-0.26,0-0.35,0.08c-1.1,1.07-2.93,0.47-4.22,0.13
	c-0.23-0.07-0.46-0.07-0.7-0.03l-4.33,0.83c-6.05,0.86-10.14-0.21-15.17,0.24c-0.57,0.05-1.09-0.32-1.24-0.88
	c-0.28-1.03-0.14-2,0.39-2.91c0.13-0.22,0.32-0.35,0.58-0.37C319.44,92.15,319.65,92.22,319.8,92.38"/>
<path d="M264.29,92.74c0.08,0.7-0.18,0.92-0.79,0.67c-0.28-0.1-0.33-0.47-0.1-0.66l0.31-0.25
	C263.93,92.33,264.25,92.47,264.29,92.74z"/>
<path class="st3" d="M319.8,92.38l1.45-0.02c-0.83,0.33-1.4,0.89-1.71,1.67c-0.08,0.22-0.03,0.46,0.14,0.62l0.95,0.89
	c0.15,0.14,0.01,0.39-0.19,0.35c-0.74-0.19-1.22-0.63-1.43-1.34c-0.07-0.24-0.04-0.5,0.07-0.74L319.8,92.38z"/>
<path class="st0" d="M363.33,98.75c0.08,0.04,0.14,0.11,0.19,0.21c0.05,0.1,0.02,0.14-0.1,0.13c-1.4-0.23-1.77-4.09-1.9-5.26
	c-0.11-1.02,0.55-1.93,1.11-1.52c0.1,0.07,0.17,0.11,0.21,0.12c0.15,0.03,0.19,0.11,0.11,0.25c-1.04,1.92-0.99,3.87,0.16,5.86
	C363.16,98.63,363.24,98.7,363.33,98.75z"/>
<path class="st3" d="M339.34,93.01c1.82-0.37,3.71-0.42,5.65-0.17c1,0.13,2.65-0.17,3.77,0.71c0.02,0.07,0.03,0.14,0.01,0.21
	c-0.04,0.13-0.12,0.2-0.26,0.2c-1.99-0.04-3.97,0.16-5.92,0.61c-0.23,0.05-0.46,0.04-0.68-0.04c-1.54-0.58-3.02-0.4-4.42,0.54
	c-0.18,0.12-0.43,0.09-0.57-0.08c-0.38-0.46-0.76-0.45-1.15,0.02c-0.17,0.21-0.39,0.25-0.64,0.13l-1.3-0.62
	c-0.23-0.11-0.48-0.18-0.73-0.19l-5.23-0.24c-0.25-0.01-0.31-0.13-0.21-0.35c0.06-0.13,0.29-0.25,0.45-0.24
	C331.89,93.77,335.63,93.61,339.34,93.01z"/>
<path d="M131.94,92.93h1.2c0.28,0,0.32,0.11,0.13,0.32c-0.49,0.55-0.99,0.61-1.51,0.2C131.55,93.28,131.67,92.93,131.94,92.93z"/>
<path class="st2" d="M40.56,94.98c-1.39,0.26-3.22-2.74,0.09-0.43C40.95,94.77,40.92,94.91,40.56,94.98z"/>
<path class="st2" d="M86.84,94.06c0.08-0.01,0.17-0.01,0.25-0.01c0.2,0,0.24,0.08,0.12,0.24c-0.57,0.74-0.82,0.78-0.74,0.11
	C86.49,94.19,86.61,94.07,86.84,94.06z"/>
<path class="st2" d="M91.9,95.32c0.05-0.76,0.45-1.2,1.19-1.31c0.22-0.04,0.33,0.06,0.33,0.28v0.64c0,0.21-0.1,0.34-0.31,0.39
	l-0.94,0.24C92.03,95.59,91.89,95.47,91.9,95.32z"/>
<path class="st0" d="M345.81,96.4c-0.32-0.01-0.58-0.05-0.58-0.09c0.01-0.08,0.01-0.15,0.01-0.22c0-0.11,0.11-0.2,0.22-0.19
	c1.37,0.2,2.51-0.23,3.4-1.25c0.19-0.22,0.43-0.29,0.71-0.22c0.06,0.01,0.12,0.04,0.19,0.06c0.08,0.03,0.09,0.07,0.04,0.13
	C348.72,95.86,347.4,96.45,345.81,96.4z"/>
<path d="M25.22,95.62c-0.14-0.13-0.14-0.26,0.01-0.38l0.37-0.29c0.38-0.3,0.89,0.14,0.65,0.56C25.99,95.98,25.65,96.01,25.22,95.62z
	"/>
<path class="st3" d="M342.3,97.25c-1.42,0.05-3.02,0.11-4.8,0.17c-1.41,0.05-3.23,0.63-5.04,0.27c-0.23-0.05-0.23-0.11-0.01-0.21
	c0.79-0.34,2.83,0.13,2.2-1.39l4.33-0.83c0.23-0.04,0.47-0.04,0.7,0.03c1.29,0.34,3.12,0.94,4.22-0.13
	c0.09-0.08,0.23-0.12,0.35-0.08c0.11,0.04,0.15,0.14,0.08,0.23C343.99,95.77,343.32,96.42,342.3,97.25z"/>
<path d="M114.03,95.4c-0.04-0.05-0.08-0.11-0.12-0.16c-0.02-0.02-0.01-0.06,0.02-0.06c1.04-0.13,1.2-0.03,0.5,0.32
	C114.27,95.57,114.14,95.54,114.03,95.4z"/>
<path class="st2" d="M90.38,95.8c0.44,0.66,0.53,1.37,0.27,2.14c-0.14,0.38-0.28,0.38-0.42,0l-0.65-1.73
	c-0.08-0.22,0.02-0.46,0.22-0.56C90,95.54,90.25,95.61,90.38,95.8z"/>
<path class="st4" d="M21.42,96.72l-0.15,0.16c-0.01,0.01-0.02,0.01-0.03-0.01c-0.56-0.88-0.51-1.01,0.17-0.38
	C21.49,96.56,21.5,96.64,21.42,96.72z"/>
<path class="st0" d="M138.28,96.64c0.17,0,0.3,0.11,0.38,0.33c0.07,0.2-0.16,0.37-0.33,0.24c-0.26-0.2-1.15-0.83-0.68-1.19
	c0.14-0.1,0.25-0.08,0.32,0.08C138.06,96.29,138.17,96.47,138.28,96.64z"/>
<path class="st3" d="M324.6,97.93c-1.58,0.09-3.24,0.1-5,0.05c-0.5-0.01-0.91,0.39-0.92,0.89l-0.06,11.7c0,0.17-0.21,0.26-0.33,0.13
	c-0.04-0.05-0.09-0.1-0.13-0.14c-0.06-0.05-0.09-0.13-0.09-0.2c-0.01-3.56-0.02-7.11-0.04-10.67c-0.01-2.31,1.47-2.65,3.48-2.45
	c2.35,0.25,4.81,0.27,7.39,0.05c0.1-0.01,0.19,0.06,0.22,0.16c0.02,0.1-0.04,0.2-0.14,0.23C327.56,98.15,325.83,97.86,324.6,97.93z"
	/>
<path class="st2" d="M92.6,97.63c0.12-0.01,0.23-0.01,0.34-0.02c0.13-0.01,0.17,0.16,0.07,0.22c-0.96,0.56-1.27,0.59-0.93,0.1
	C92.19,97.75,92.39,97.64,92.6,97.63z"/>
<path class="st3" d="M346.15,97.96c1.3-0.2,2.57-0.23,3.84-0.11c0.21,0.02,0.36,0.2,0.35,0.41c-0.01,0.21-0.18,0.37-0.39,0.37
	c-2.42-0.02-4.83-0.02-7.21-0.01c-0.08,0-0.16-0.06-0.17-0.15c-0.01-0.08,0.04-0.17,0.13-0.19c0.88-0.25,1.78-0.35,2.71-0.29
	C345.66,98.01,345.9,97.99,346.15,97.96z"/>
<path class="st1" d="M133.11,98.88c-0.16,0.26-0.35,0.41-0.55,0.42c-0.21,0.02-0.4-0.13-0.44-0.33c-0.05-0.21,0.07-0.41,0.27-0.49
	l0.75-0.27c0.2-0.07,0.33-0.01,0.39,0.19c0.06,0.23,0.01,0.34-0.17,0.34C133.26,98.74,133.16,98.8,133.11,98.88z"/>
<path class="st2" d="M93.24,100.72l0.58,0.58c0.11,0.11,0.11,0.26,0.01,0.38c-0.09,0.11-0.25,0.14-0.37,0.05
	c-1.02-0.7-1.25-1.65-0.71-2.86c0.1-0.23,0.41-0.29,0.59-0.11l0.19,0.19c0.07,0.08,0.09,0.17,0.04,0.26l-0.44,0.9
	C93.03,100.33,93.06,100.54,93.24,100.72z"/>
<path class="st1" d="M19.41,99.45c0.21,0.25,0.23,0.48,0.07,0.71c-0.18,0.25-0.57,0.15-0.61-0.15l-0.08-0.62
	c-0.04-0.23,0.07-0.33,0.3-0.3C19.29,99.11,19.39,99.23,19.41,99.45z"/>
<path class="st2" d="M91.51,99.35c0.12,0.01,0.22,0.11,0.22,0.22l-0.01,0.75c-0.01,0.77-0.29,1.38-0.63,1.38H90.9
	c-0.34,0-0.62-0.62-0.61-1.4l0.01-0.75c0-0.12,0.1-0.22,0.22-0.21H91.51z"/>
<path class="st2" d="M26.16,102.73c0.01,0.11,0,0.22-0.04,0.31c-0.1,0.22-0.21,0.23-0.35,0.03c-0.26-0.4-0.26-0.77,0-1.1
	c0.14-0.17,0.41-0.14,0.49,0.07C26.37,102.28,26.33,102.51,26.16,102.73z"/>
<path class="st1" d="M313.57,111.52c-0.46-0.29-0.37-0.43,0.3-0.42c0.23,0.01,0.38,0.13,0.42,0.36c0.04,0.22-0.11,0.28-0.44,0.18
	C313.75,111.61,313.65,111.57,313.57,111.52z"/>
</svg>
